<?xml version="1.0" encoding="UTF-8" standalone="no"?>
<!-- Created with Inkscape (http://www.inkscape.org/) -->

<svg
   version="1.1"
   id="svg2"
   width="5000"
   height="3000"
   viewBox="0 0 5000 3000"
   sodipodi:docname="vecteezy_wave-orange-gradient-background-with-white-line_12411708.eps"
   xmlns:inkscape="http://www.inkscape.org/namespaces/inkscape"
   xmlns:sodipodi="http://sodipodi.sourceforge.net/DTD/sodipodi-0.dtd"
   xmlns="http://www.w3.org/2000/svg"
   xmlns:svg="http://www.w3.org/2000/svg">
  <defs
     id="defs6">
    <linearGradient
       x1="0"
       y1="0"
       x2="1"
       y2="0"
       gradientUnits="userSpaceOnUse"
       gradientTransform="matrix(-1862.05,27588.2,-27588.2,-1862.05,18233.3,0.64431)"
       spreadMethod="pad"
       id="linearGradient136">
      <stop
         style="stop-opacity:1;stop-color:#ff6600"
         offset="0"
         id="stop132" />
      <stop
         style="stop-opacity:1;stop-color:#ffcc00"
         offset="1"
         id="stop134" />
    </linearGradient>
    <linearGradient
       x1="0"
       y1="0"
       x2="1"
       y2="0"
       gradientUnits="userSpaceOnUse"
       gradientTransform="matrix(418.916,-6235.12,6235.12,418.916,19855.6,22497.6)"
       spreadMethod="pad"
       id="linearGradient144">
      <stop
         style="stop-opacity:1;stop-color:#ff6600"
         offset="0"
         id="stop140" />
      <stop
         style="stop-opacity:1;stop-color:#ffcc00"
         offset="1"
         id="stop142" />
    </linearGradient>
    <linearGradient
       x1="0"
       y1="0"
       x2="1"
       y2="0"
       gradientUnits="userSpaceOnUse"
       gradientTransform="matrix(1343.96,-7127.64,7127.64,1343.96,9420.08,24844.2)"
       spreadMethod="pad"
       id="linearGradient152">
      <stop
         style="stop-opacity:1;stop-color:#ff6600"
         offset="0"
         id="stop148" />
      <stop
         style="stop-opacity:1;stop-color:#ffcc00"
         offset="1"
         id="stop150" />
    </linearGradient>
    <linearGradient
       x1="0"
       y1="0"
       x2="1"
       y2="0"
       gradientUnits="userSpaceOnUse"
       gradientTransform="matrix(-296.569,4649.54,-4649.54,-296.569,14143.3,-741.818)"
       spreadMethod="pad"
       id="linearGradient160">
      <stop
         style="stop-opacity:1;stop-color:#ff6600"
         offset="0"
         id="stop156" />
      <stop
         style="stop-opacity:1;stop-color:#ffcc00"
         offset="1"
         id="stop158" />
    </linearGradient>
    <linearGradient
       x1="0"
       y1="0"
       x2="1"
       y2="0"
       gradientUnits="userSpaceOnUse"
       gradientTransform="matrix(-8134.71,7738.51,-7738.51,-8134.71,34156.9,1413.51)"
       spreadMethod="pad"
       id="linearGradient168">
      <stop
         style="stop-opacity:1;stop-color:#ff6600"
         offset="0"
         id="stop164" />
      <stop
         style="stop-opacity:1;stop-color:#ffcc00"
         offset="1"
         id="stop166" />
    </linearGradient>
  </defs>
  <sodipodi:namedview
     id="namedview4"
     pagecolor="#ffffff"
     bordercolor="#000000"
     borderopacity="0.25"
     inkscape:showpageshadow="2"
     inkscape:pageopacity="0.0"
     inkscape:pagecheckerboard="0"
     inkscape:deskcolor="#d1d1d1" />
  <g
     id="g8"
     inkscape:groupmode="layer"
     inkscape:label="ink_ext_XXXXXX"
     transform="matrix(1.3333333,0,0,-1.3333333,0,3000)">
    <g
       id="g10"
       transform="scale(0.1)">
      <path
         d="M 1.42188,22497.6 H 37499.6 V 0.644531 H 1.42188 V 352.16 v 351.516 351.514 351.52 351.51 351.52 351.51 351.52 351.51 351.52 351.51 351.52 351.51 351.52 351.52 351.51 351.52 351.51 351.52 351.51 351.52 351.51 351.52 351.52 351.51 351.52 351.51 351.52 351.52 351.5 351.5 351.5 351.6 351.5 351.5 351.5 351.5 351.5 351.5 351.6 351.5 351.5 351.5 351.5 351.5 351.6 351.5 351.5 351.5 351.5 351.5 351.5 351.6 351.5 351.5 351.5 351.5 351.5 351.6 351.5 351.5 351.5 351.5 351.5"
         style="fill:#ff6600;fill-opacity:1;fill-rule:nonzero;stroke:none"
         id="path12" />
      <path
         d="M 1.42188,22497.6 H 37499.6 V 0.644531 H 1.42188 V 352.16 v 351.516 351.514 351.52 351.51 351.52 351.51 351.52 351.51 351.52 351.51 351.52 351.51 351.52 351.52 351.51 351.52 351.51 351.52 351.51 351.52 351.51 351.52 351.52 351.51 351.52 351.51 351.52 351.52 351.5 351.5 351.5 351.6 351.5 351.5 351.5 351.5 351.5 351.5 351.6 351.5 351.5 351.5 351.5 351.5 351.6 351.5 351.5 351.5 351.5 351.5 351.5 351.6 351.5 351.5 351.5 351.5 351.5 351.6 351.5 351.5 351.5 351.5 351.5"
         style="fill:#ff6600;fill-opacity:1;fill-rule:nonzero;stroke:none"
         id="path14" />
      <path
         d="M 1.42188,22497.6 H 37499.6 V 0.644531 H 1.42188 V 352.16 v 351.516 351.514 351.52 351.51 351.52 351.51 351.52 351.51 351.52 351.51 351.52 351.51 351.52 351.52 351.51 351.52 351.51 351.52 351.51 351.52 351.51 351.52 351.52 351.51 351.52 351.51 351.52 351.52 351.5 351.5 351.5 351.6 351.5 351.5 351.5 351.5 351.5 351.5 351.6 351.5 351.5 351.5 351.5 351.5 351.6 351.5 351.5 351.5 351.5 351.5 351.5 351.6 351.5 351.5 351.5 351.5 351.5 351.6 351.5 351.5 351.5 351.5 351.5"
         style="fill:#ff6600;fill-opacity:1;fill-rule:nonzero;stroke:none"
         id="path16" />
      <path
         d="M 1.42188,22497.6 H 37499.6 V 0.644531 H 1.42188 V 352.16 v 351.516 351.514 351.52 351.51 351.52 351.51 351.52 351.51 351.52 351.51 351.52 351.51 351.52 351.52 351.51 351.52 351.51 351.52 351.51 351.52 351.51 351.52 351.52 351.51 351.52 351.51 351.52 351.52 351.5 351.5 351.5 351.6 351.5 351.5 351.5 351.5 351.5 351.5 351.6 351.5 351.5 351.5 351.5 351.5 351.6 351.5 351.5 351.5 351.5 351.5 351.5 351.6 351.5 351.5 351.5 351.5 351.5 351.6 351.5 351.5 351.5 351.5 351.5"
         style="fill:#ff6600;fill-opacity:1;fill-rule:nonzero;stroke:none"
         id="path18" />
      <path
         d="M 1.42188,22497.6 H 37499.6 V 0.644531 H 1.42188 V 352.16 v 351.516 351.514 351.52 351.51 351.52 351.51 351.52 351.51 351.52 351.51 351.52 351.51 351.52 351.52 351.51 351.52 351.51 351.52 351.51 351.52 351.51 351.52 351.52 351.51 351.52 351.51 351.52 351.52 351.5 351.5 351.5 351.6 351.5 351.5 351.5 351.5 351.5 351.5 351.6 351.5 351.5 351.5 351.5 351.5 351.6 351.5 351.5 351.5 351.5 351.5 351.5 351.6 351.5 351.5 351.5 351.5 351.5 351.6 351.5 351.5 351.5 351.5 351.5"
         style="fill:#ff6600;fill-opacity:1;fill-rule:nonzero;stroke:none"
         id="path20" />
      <path
         d="M 1.42188,22497.6 H 37499.6 V 0.644531 H 1.42188 V 352.16 v 351.516 351.514 351.52 351.51 351.52 351.51 351.52 351.51 351.52 351.51 351.52 351.51 351.52 351.52 351.51 351.52 351.51 351.52 351.51 351.52 351.51 351.52 351.52 351.51 351.52 351.51 351.52 351.52 351.5 351.5 351.5 351.6 351.5 351.5 351.5 351.5 351.5 351.5 351.6 351.5 351.5 351.5 351.5 351.5 351.6 351.5 351.5 351.5 351.5 351.5 351.5 351.6 351.5 351.5 351.5 351.5 351.5 351.6 351.5 351.5 351.5 351.5 351.5"
         style="fill:#ff6600;fill-opacity:1;fill-rule:nonzero;stroke:none"
         id="path22" />
      <path
         d="M 1.42188,22497.6 H 37499.6 V 0.644531 H 1.42188 V 352.16 v 351.516 351.514 351.52 351.51 351.52 351.51 351.52 351.51 351.52 351.51 351.52 351.51 351.52 351.52 351.51 351.52 351.51 351.52 351.51 351.52 351.51 351.52 351.52 351.51 351.52 351.51 351.52 351.52 351.5 351.5 351.5 351.6 351.5 351.5 351.5 351.5 351.5 351.5 351.6 351.5 351.5 351.5 351.5 351.5 351.6 351.5 351.5 351.5 351.5 351.5 351.5 351.6 351.5 351.5 351.5 351.5 351.5 351.6 351.5 351.5 351.5 351.5 351.5"
         style="fill:#ff6600;fill-opacity:1;fill-rule:nonzero;stroke:none"
         id="path24" />
      <path
         d="M 1.42188,22497.6 H 37499.6 V 0.644531 H 1.42188 V 352.16 v 351.516 351.514 351.52 351.51 351.52 351.51 351.52 351.51 351.52 351.51 351.52 351.51 351.52 351.52 351.51 351.52 351.51 351.52 351.51 351.52 351.51 351.52 351.52 351.51 351.52 351.51 351.52 351.52 351.5 351.5 351.5 351.6 351.5 351.5 351.5 351.5 351.5 351.5 351.6 351.5 351.5 351.5 351.5 351.5 351.6 351.5 351.5 351.5 351.5 351.5 351.5 351.6 351.5 351.5 351.5 351.5 351.5 351.6 351.5 351.5 351.5 351.5 351.5"
         style="fill:#ff6600;fill-opacity:1;fill-rule:nonzero;stroke:none"
         id="path26" />
      <path
         d="M 1.42188,22497.6 H 37499.6 V 0.644531 H 1.42188 V 352.16 v 351.516 351.514 351.52 351.51 351.52 351.51 351.52 351.51 351.52 351.51 351.52 351.51 351.52 351.52 351.51 351.52 351.51 351.52 351.51 351.52 351.51 351.52 351.52 351.51 351.52 351.51 351.52 351.52 351.5 351.5 351.5 351.6 351.5 351.5 351.5 351.5 351.5 351.5 351.6 351.5 351.5 351.5 351.5 351.5 351.6 351.5 351.5 351.5 351.5 351.5 351.5 351.6 351.5 351.5 351.5 351.5 351.5 351.6 351.5 351.5 351.5 351.5 351.5"
         style="fill:#ff6600;fill-opacity:1;fill-rule:nonzero;stroke:none"
         id="path28" />
      <path
         d="M 1.42188,22497.6 H 37499.6 V 0.644531 H 1.42188 V 352.16 v 351.516 351.514 351.52 351.51 351.52 351.51 351.52 351.51 351.52 351.51 351.52 351.51 351.52 351.52 351.51 351.52 351.51 351.52 351.51 351.52 351.51 351.52 351.52 351.51 351.52 351.51 351.52 351.52 351.5 351.5 351.5 351.6 351.5 351.5 351.5 351.5 351.5 351.5 351.6 351.5 351.5 351.5 351.5 351.5 351.6 351.5 351.5 351.5 351.5 351.5 351.5 351.6 351.5 351.5 351.5 351.5 351.5 351.6 351.5 351.5 351.5 351.5 351.5"
         style="fill:#ff6600;fill-opacity:1;fill-rule:nonzero;stroke:none"
         id="path30" />
      <path
         d="M 1.42188,22497.6 H 37499.6 V 0.644531 H 1.42188 V 352.16 v 351.516 351.514 351.52 351.51 351.52 351.51 351.52 351.51 351.52 351.51 351.52 351.51 351.52 351.52 351.51 351.52 351.51 351.52 351.51 351.52 351.51 351.52 351.52 351.51 351.52 351.51 351.52 351.52 351.5 351.5 351.5 351.6 351.5 351.5 351.5 351.5 351.5 351.5 351.6 351.5 351.5 351.5 351.5 351.5 351.6 351.5 351.5 351.5 351.5 351.5 351.5 351.6 351.5 351.5 351.5 351.5 351.5 351.6 351.5 351.5 351.5 351.5 351.5"
         style="fill:#ff6600;fill-opacity:1;fill-rule:nonzero;stroke:none"
         id="path32" />
      <path
         d="M 1.42188,22497.6 H 37499.6 V 0.644531 H 1.42188 V 352.16 v 351.516 351.514 351.52 351.51 351.52 351.51 351.52 351.51 351.52 351.51 351.52 351.51 351.52 351.52 351.51 351.52 351.51 351.52 351.51 351.52 351.51 351.52 351.52 351.51 351.52 351.51 351.52 351.52 351.5 351.5 351.5 351.6 351.5 351.5 351.5 351.5 351.5 351.5 351.6 351.5 351.5 351.5 351.5 351.5 351.6 351.5 351.5 351.5 351.5 351.5 351.5 351.6 351.5 351.5 351.5 351.5 351.5 351.6 351.5 351.5 351.5 351.5 351.5"
         style="fill:#ff6600;fill-opacity:1;fill-rule:nonzero;stroke:none"
         id="path34" />
      <path
         d="M 1.42188,22497.6 H 37499.6 V 0.644531 H 1.42188 V 352.16 v 351.516 351.514 351.52 351.51 351.52 351.51 351.52 351.51 351.52 351.51 351.52 351.51 351.52 351.52 351.51 351.52 351.51 351.52 351.51 351.52 351.51 351.52 351.52 351.51 351.52 351.51 351.52 351.52 351.5 351.5 351.5 351.6 351.5 351.5 351.5 351.5 351.5 351.5 351.6 351.5 351.5 351.5 351.5 351.5 351.6 351.5 351.5 351.5 351.5 351.5 351.5 351.6 351.5 351.5 351.5 351.5 351.5 351.6 351.5 351.5 351.5 351.5 351.5"
         style="fill:#ff6600;fill-opacity:1;fill-rule:nonzero;stroke:none"
         id="path36" />
      <path
         d="M 1.42188,22497.6 H 37499.6 V 0.644531 H 1.42188 V 352.16 v 351.516 351.514 351.52 351.51 351.52 351.51 351.52 351.51 351.52 351.51 351.52 351.51 351.52 351.52 351.51 351.52 351.51 351.52 351.51 351.52 351.51 351.52 351.52 351.51 351.52 351.51 351.52 351.52 351.5 351.5 351.5 351.6 351.5 351.5 351.5 351.5 351.5 351.5 351.6 351.5 351.5 351.5 351.5 351.5 351.6 351.5 351.5 351.5 351.5 351.5 351.5 351.6 351.5 351.5 351.5 351.5 351.5 351.6 351.5 351.5 351.5 351.5 351.5"
         style="fill:#ff6600;fill-opacity:1;fill-rule:nonzero;stroke:none"
         id="path38" />
      <path
         d="M 1.42188,22497.6 H 37499.6 V 0.644531 H 1.42188 V 352.16 v 351.516 351.514 351.52 351.51 351.52 351.51 351.52 351.51 351.52 351.51 351.52 351.51 351.52 351.52 351.51 351.52 351.51 351.52 351.51 351.52 351.51 351.52 351.52 351.51 351.52 351.51 351.52 351.52 351.5 351.5 351.5 351.6 351.5 351.5 351.5 351.5 351.5 351.5 351.6 351.5 351.5 351.5 351.5 351.5 351.6 351.5 351.5 351.5 351.5 351.5 351.5 351.6 351.5 351.5 351.5 351.5 351.5 351.6 351.5 351.5 351.5 351.5 351.5"
         style="fill:#ff6600;fill-opacity:1;fill-rule:nonzero;stroke:none"
         id="path40" />
      <path
         d="M 1.42188,22497.6 H 37499.6 V 0.644531 H 1.42188 V 352.16 v 351.516 351.514 351.52 351.51 351.52 351.51 351.52 351.51 351.52 351.51 351.52 351.51 351.52 351.52 351.51 351.52 351.51 351.52 351.51 351.52 351.51 351.52 351.52 351.51 351.52 351.51 351.52 351.52 351.5 351.5 351.5 351.6 351.5 351.5 351.5 351.5 351.5 351.5 351.6 351.5 351.5 351.5 351.5 351.5 351.6 351.5 351.5 351.5 351.5 351.5 351.5 351.6 351.5 351.5 351.5 351.5 351.5 351.6 351.5 351.5 351.5 351.5 351.5"
         style="fill:#ff6600;fill-opacity:1;fill-rule:nonzero;stroke:none"
         id="path42" />
      <path
         d="M 1.42188,22497.6 H 37499.6 V 0.644531 H 1.42188 V 352.16 v 351.516 351.514 351.52 351.51 351.52 351.51 351.52 351.51 351.52 351.51 351.52 351.51 351.52 351.52 351.51 351.52 351.51 351.52 351.51 351.52 351.51 351.52 351.52 351.51 351.52 351.51 351.52 351.52 351.5 351.5 351.5 351.6 351.5 351.5 351.5 351.5 351.5 351.5 351.6 351.5 351.5 351.5 351.5 351.5 351.6 351.5 351.5 351.5 351.5 351.5 351.5 351.6 351.5 351.5 351.5 351.5 351.5 351.6 351.5 351.5 351.5 351.5 351.5"
         style="fill:#ff6600;fill-opacity:1;fill-rule:nonzero;stroke:none"
         id="path44" />
      <path
         d="M 1.42188,22497.6 H 37499.6 V 0.644531 H 1.42188 V 352.16 v 351.516 351.514 351.52 351.51 351.52 351.51 351.52 351.51 351.52 351.51 351.52 351.51 351.52 351.52 351.51 351.52 351.51 351.52 351.51 351.52 351.51 351.52 351.52 351.51 351.52 351.51 351.52 351.52 351.5 351.5 351.5 351.6 351.5 351.5 351.5 351.5 351.5 351.5 351.6 351.5 351.5 351.5 351.5 351.5 351.6 351.5 351.5 351.5 351.5 351.5 351.5 351.6 351.5 351.5 351.5 351.5 351.5 351.6 351.5 351.5 351.5 351.5 351.5"
         style="fill:#ff6600;fill-opacity:1;fill-rule:nonzero;stroke:none"
         id="path46" />
      <path
         d="M 1.42188,22497.6 H 37499.6 V 0.644531 H 1.42188 V 352.16 v 351.516 351.514 351.52 351.51 351.52 351.51 351.52 351.51 351.52 351.51 351.52 351.51 351.52 351.52 351.51 351.52 351.51 351.52 351.51 351.52 351.51 351.52 351.52 351.51 351.52 351.51 351.52 351.52 351.5 351.5 351.5 351.6 351.5 351.5 351.5 351.5 351.5 351.5 351.6 351.5 351.5 351.5 351.5 351.5 351.6 351.5 351.5 351.5 351.5 351.5 351.5 351.6 351.5 351.5 351.5 351.5 351.5 351.6 351.5 351.5 351.5 351.5 351.5"
         style="fill:#ff6600;fill-opacity:1;fill-rule:nonzero;stroke:none"
         id="path48" />
      <path
         d="M 1.42188,22497.6 H 37499.6 V 0.644531 H 1.42188 V 352.16 v 351.516 351.514 351.52 351.51 351.52 351.51 351.52 351.51 351.52 351.51 351.52 351.51 351.52 351.52 351.51 351.52 351.51 351.52 351.51 351.52 351.51 351.52 351.52 351.51 351.52 351.51 351.52 351.52 351.5 351.5 351.5 351.6 351.5 351.5 351.5 351.5 351.5 351.5 351.6 351.5 351.5 351.5 351.5 351.5 351.6 351.5 351.5 351.5 351.5 351.5 351.5 351.6 351.5 351.5 351.5 351.5 351.5 351.6 351.5 351.5 351.5 351.5 351.5"
         style="fill:#ff6600;fill-opacity:1;fill-rule:nonzero;stroke:none"
         id="path50" />
      <path
         d="M 1.42188,22497.6 H 37499.6 V 0.644531 H 1.42188 V 352.16 v 351.516 351.514 351.52 351.51 351.52 351.51 351.52 351.51 351.52 351.51 351.52 351.51 351.52 351.52 351.51 351.52 351.51 351.52 351.51 351.52 351.51 351.52 351.52 351.51 351.52 351.51 351.52 351.52 351.5 351.5 351.5 351.6 351.5 351.5 351.5 351.5 351.5 351.5 351.6 351.5 351.5 351.5 351.5 351.5 351.6 351.5 351.5 351.5 351.5 351.5 351.5 351.6 351.5 351.5 351.5 351.5 351.5 351.6 351.5 351.5 351.5 351.5 351.5"
         style="fill:#ff6600;fill-opacity:1;fill-rule:nonzero;stroke:none"
         id="path52" />
      <path
         d="M 1.42188,22497.6 H 37499.6 V 0.644531 H 1.42188 V 352.16 v 351.516 351.514 351.52 351.51 351.52 351.51 351.52 351.51 351.52 351.51 351.52 351.51 351.52 351.52 351.51 351.52 351.51 351.52 351.51 351.52 351.51 351.52 351.52 351.51 351.52 351.51 351.52 351.52 351.5 351.5 351.5 351.6 351.5 351.5 351.5 351.5 351.5 351.5 351.6 351.5 351.5 351.5 351.5 351.5 351.6 351.5 351.5 351.5 351.5 351.5 351.5 351.6 351.5 351.5 351.5 351.5 351.5 351.6 351.5 351.5 351.5 351.5 351.5"
         style="fill:#ff6600;fill-opacity:1;fill-rule:nonzero;stroke:none"
         id="path54" />
      <path
         d="M 1.42188,22497.6 H 37499.6 V 0.644531 H 1.42188 V 352.16 v 351.516 351.514 351.52 351.51 351.52 351.51 351.52 351.51 351.52 351.51 351.52 351.51 351.52 351.52 351.51 351.52 351.51 351.52 351.51 351.52 351.51 351.52 351.52 351.51 351.52 351.51 351.52 351.52 351.5 351.5 351.5 351.6 351.5 351.5 351.5 351.5 351.5 351.5 351.6 351.5 351.5 351.5 351.5 351.5 351.6 351.5 351.5 351.5 351.5 351.5 351.5 351.6 351.5 351.5 351.5 351.5 351.5 351.6 351.5 351.5 351.5 351.5 351.5"
         style="fill:#ff6600;fill-opacity:1;fill-rule:nonzero;stroke:none"
         id="path56" />
      <path
         d="M 1.42188,22497.6 H 37499.6 V 0.644531 H 1.42188 V 352.16 v 351.516 351.514 351.52 351.51 351.52 351.51 351.52 351.51 351.52 351.51 351.52 351.51 351.52 351.52 351.51 351.52 351.51 351.52 351.51 351.52 351.51 351.52 351.52 351.51 351.52 351.51 351.52 351.52 351.5 351.5 351.5 351.6 351.5 351.5 351.5 351.5 351.5 351.5 351.6 351.5 351.5 351.5 351.5 351.5 351.6 351.5 351.5 351.5 351.5 351.5 351.5 351.6 351.5 351.5 351.5 351.5 351.5 351.6 351.5 351.5 351.5 351.5 351.5"
         style="fill:#ff6600;fill-opacity:1;fill-rule:nonzero;stroke:none"
         id="path58" />
      <path
         d="M 1.42188,22497.6 H 37499.6 V 0.644531 H 1.42188 V 352.16 v 351.516 351.514 351.52 351.51 351.52 351.51 351.52 351.51 351.52 351.51 351.52 351.51 351.52 351.52 351.51 351.52 351.51 351.52 351.51 351.52 351.51 351.52 351.52 351.51 351.52 351.51 351.52 351.52 351.5 351.5 351.5 351.6 351.5 351.5 351.5 351.5 351.5 351.5 351.6 351.5 351.5 351.5 351.5 351.5 351.6 351.5 351.5 351.5 351.5 351.5 351.5 351.6 351.5 351.5 351.5 351.5 351.5 351.6 351.5 351.5 351.5 351.5 351.5"
         style="fill:#ff6600;fill-opacity:1;fill-rule:nonzero;stroke:none"
         id="path60" />
      <path
         d="M 1.42188,22497.6 H 37499.6 V 0.644531 H 1.42188 V 352.16 v 351.516 351.514 351.52 351.51 351.52 351.51 351.52 351.51 351.52 351.51 351.52 351.51 351.52 351.52 351.51 351.52 351.51 351.52 351.51 351.52 351.51 351.52 351.52 351.51 351.52 351.51 351.52 351.52 351.5 351.5 351.5 351.6 351.5 351.5 351.5 351.5 351.5 351.5 351.6 351.5 351.5 351.5 351.5 351.5 351.6 351.5 351.5 351.5 351.5 351.5 351.5 351.6 351.5 351.5 351.5 351.5 351.5 351.6 351.5 351.5 351.5 351.5 351.5"
         style="fill:#ff6600;fill-opacity:1;fill-rule:nonzero;stroke:none"
         id="path62" />
      <path
         d="M 1.42188,22497.6 H 37499.6 V 0.644531 H 1.42188 V 352.16 v 351.516 351.514 351.52 351.51 351.52 351.51 351.52 351.51 351.52 351.51 351.52 351.51 351.52 351.52 351.51 351.52 351.51 351.52 351.51 351.52 351.51 351.52 351.52 351.51 351.52 351.51 351.52 351.52 351.5 351.5 351.5 351.6 351.5 351.5 351.5 351.5 351.5 351.5 351.6 351.5 351.5 351.5 351.5 351.5 351.6 351.5 351.5 351.5 351.5 351.5 351.5 351.6 351.5 351.5 351.5 351.5 351.5 351.6 351.5 351.5 351.5 351.5 351.5"
         style="fill:#ff6600;fill-opacity:1;fill-rule:nonzero;stroke:none"
         id="path64" />
      <path
         d="M 1.42188,22497.6 H 37499.6 V 0.644531 H 1.42188 V 352.16 v 351.516 351.514 351.52 351.51 351.52 351.51 351.52 351.51 351.52 351.51 351.52 351.51 351.52 351.52 351.51 351.52 351.51 351.52 351.51 351.52 351.51 351.52 351.52 351.51 351.52 351.51 351.52 351.52 351.5 351.5 351.5 351.6 351.5 351.5 351.5 351.5 351.5 351.5 351.6 351.5 351.5 351.5 351.5 351.5 351.6 351.5 351.5 351.5 351.5 351.5 351.5 351.6 351.5 351.5 351.5 351.5 351.5 351.6 351.5 351.5 351.5 351.5 351.5"
         style="fill:#ff6600;fill-opacity:1;fill-rule:nonzero;stroke:none"
         id="path66" />
      <path
         d="M 1.42188,22497.6 H 37499.6 V 0.644531 H 1.42188 V 352.16 v 351.516 351.514 351.52 351.51 351.52 351.51 351.52 351.51 351.52 351.51 351.52 351.51 351.52 351.52 351.51 351.52 351.51 351.52 351.51 351.52 351.51 351.52 351.52 351.51 351.52 351.51 351.52 351.52 351.5 351.5 351.5 351.6 351.5 351.5 351.5 351.5 351.5 351.5 351.6 351.5 351.5 351.5 351.5 351.5 351.6 351.5 351.5 351.5 351.5 351.5 351.5 351.6 351.5 351.5 351.5 351.5 351.5 351.6 351.5 351.5 351.5 351.5 351.5"
         style="fill:#ff6600;fill-opacity:1;fill-rule:nonzero;stroke:none"
         id="path68" />
      <path
         d="M 1.42188,22497.6 H 37499.6 V 0.644531 H 1.42188 V 352.16 v 351.516 351.514 351.52 351.51 351.52 351.51 351.52 351.51 351.52 351.51 351.52 351.51 351.52 351.52 351.51 351.52 351.51 351.52 351.51 351.52 351.51 351.52 351.52 351.51 351.52 351.51 351.52 351.52 351.5 351.5 351.5 351.6 351.5 351.5 351.5 351.5 351.5 351.5 351.6 351.5 351.5 351.5 351.5 351.5 351.6 351.5 351.5 351.5 351.5 351.5 351.5 351.6 351.5 351.5 351.5 351.5 351.5 351.6 351.5 351.5 351.5 351.5 351.5"
         style="fill:#ff6600;fill-opacity:1;fill-rule:nonzero;stroke:none"
         id="path70" />
      <path
         d="M 1.42188,22497.6 H 37499.6 V 0.644531 H 1.42188 V 352.16 v 351.516 351.514 351.52 351.51 351.52 351.51 351.52 351.51 351.52 351.51 351.52 351.51 351.52 351.52 351.51 351.52 351.51 351.52 351.51 351.52 351.51 351.52 351.52 351.51 351.52 351.51 351.52 351.52 351.5 351.5 351.5 351.6 351.5 351.5 351.5 351.5 351.5 351.5 351.6 351.5 351.5 351.5 351.5 351.5 351.6 351.5 351.5 351.5 351.5 351.5 351.5 351.6 351.5 351.5 351.5 351.5 351.5 351.6 351.5 351.5 351.5 351.5 351.5"
         style="fill:#ff6600;fill-opacity:1;fill-rule:nonzero;stroke:none"
         id="path72" />
      <path
         d="M 1.42188,22497.6 H 37499.6 V 0.644531 H 1.42188 V 352.16 v 351.516 351.514 351.52 351.51 351.52 351.51 351.52 351.51 351.52 351.51 351.52 351.51 351.52 351.52 351.51 351.52 351.51 351.52 351.51 351.52 351.51 351.52 351.52 351.51 351.52 351.51 351.52 351.52 351.5 351.5 351.5 351.6 351.5 351.5 351.5 351.5 351.5 351.5 351.6 351.5 351.5 351.5 351.5 351.5 351.6 351.5 351.5 351.5 351.5 351.5 351.5 351.6 351.5 351.5 351.5 351.5 351.5 351.6 351.5 351.5 351.5 351.5 351.5"
         style="fill:#ff6600;fill-opacity:1;fill-rule:nonzero;stroke:none"
         id="path74" />
      <path
         d="M 1.42188,22497.6 H 37499.6 V 0.644531 H 1.42188 V 352.16 v 351.516 351.514 351.52 351.51 351.52 351.51 351.52 351.51 351.52 351.51 351.52 351.51 351.52 351.52 351.51 351.52 351.51 351.52 351.51 351.52 351.51 351.52 351.52 351.51 351.52 351.51 351.52 351.52 351.5 351.5 351.5 351.6 351.5 351.5 351.5 351.5 351.5 351.5 351.6 351.5 351.5 351.5 351.5 351.5 351.6 351.5 351.5 351.5 351.5 351.5 351.5 351.6 351.5 351.5 351.5 351.5 351.5 351.6 351.5 351.5 351.5 351.5 351.5"
         style="fill:#ff6600;fill-opacity:1;fill-rule:nonzero;stroke:none"
         id="path76" />
      <path
         d="M 1.42188,22497.6 H 37499.6 V 0.644531 H 1.42188 V 352.16 v 351.516 351.514 351.52 351.51 351.52 351.51 351.52 351.51 351.52 351.51 351.52 351.51 351.52 351.52 351.51 351.52 351.51 351.52 351.51 351.52 351.51 351.52 351.52 351.51 351.52 351.51 351.52 351.52 351.5 351.5 351.5 351.6 351.5 351.5 351.5 351.5 351.5 351.5 351.6 351.5 351.5 351.5 351.5 351.5 351.6 351.5 351.5 351.5 351.5 351.5 351.5 351.6 351.5 351.5 351.5 351.5 351.5 351.6 351.5 351.5 351.5 351.5 351.5"
         style="fill:#ff6600;fill-opacity:1;fill-rule:nonzero;stroke:none"
         id="path78" />
      <path
         d="M 1.42188,22497.6 H 37499.6 V 0.644531 H 1.42188 V 352.16 v 351.516 351.514 351.52 351.51 351.52 351.51 351.52 351.51 351.52 351.51 351.52 351.51 351.52 351.52 351.51 351.52 351.51 351.52 351.51 351.52 351.51 351.52 351.52 351.51 351.52 351.51 351.52 351.52 351.5 351.5 351.5 351.6 351.5 351.5 351.5 351.5 351.5 351.5 351.6 351.5 351.5 351.5 351.5 351.5 351.6 351.5 351.5 351.5 351.5 351.5 351.5 351.6 351.5 351.5 351.5 351.5 351.5 351.6 351.5 351.5 351.5 351.5 351.5"
         style="fill:#ff6600;fill-opacity:1;fill-rule:nonzero;stroke:none"
         id="path80" />
      <path
         d="M 1.42188,22497.6 H 37499.6 V 0.644531 H 1.42188 V 352.16 v 351.516 351.514 351.52 351.51 351.52 351.51 351.52 351.51 351.52 351.51 351.52 351.51 351.52 351.52 351.51 351.52 351.51 351.52 351.51 351.52 351.51 351.52 351.52 351.51 351.52 351.51 351.52 351.52 351.5 351.5 351.5 351.6 351.5 351.5 351.5 351.5 351.5 351.5 351.6 351.5 351.5 351.5 351.5 351.5 351.6 351.5 351.5 351.5 351.5 351.5 351.5 351.6 351.5 351.5 351.5 351.5 351.5 351.6 351.5 351.5 351.5 351.5 351.5"
         style="fill:#ff6600;fill-opacity:1;fill-rule:nonzero;stroke:none"
         id="path82" />
      <path
         d="M 1.42188,22497.6 H 37499.6 V 0.644531 H 1.42188 V 352.16 v 351.516 351.514 351.52 351.51 351.52 351.51 351.52 351.51 351.52 351.51 351.52 351.51 351.52 351.52 351.51 351.52 351.51 351.52 351.51 351.52 351.51 351.52 351.52 351.51 351.52 351.51 351.52 351.52 351.5 351.5 351.5 351.6 351.5 351.5 351.5 351.5 351.5 351.5 351.6 351.5 351.5 351.5 351.5 351.5 351.6 351.5 351.5 351.5 351.5 351.5 351.5 351.6 351.5 351.5 351.5 351.5 351.5 351.6 351.5 351.5 351.5 351.5 351.5"
         style="fill:#ff6600;fill-opacity:1;fill-rule:nonzero;stroke:none"
         id="path84" />
      <path
         d="M 1.42188,22497.6 H 37499.6 V 0.644531 H 1.42188 V 352.16 v 351.516 351.514 351.52 351.51 351.52 351.51 351.52 351.51 351.52 351.51 351.52 351.51 351.52 351.52 351.51 351.52 351.51 351.52 351.51 351.52 351.51 351.52 351.52 351.51 351.52 351.51 351.52 351.52 351.5 351.5 351.5 351.6 351.5 351.5 351.5 351.5 351.5 351.5 351.6 351.5 351.5 351.5 351.5 351.5 351.6 351.5 351.5 351.5 351.5 351.5 351.5 351.6 351.5 351.5 351.5 351.5 351.5 351.6 351.5 351.5 351.5 351.5 351.5"
         style="fill:#ff6600;fill-opacity:1;fill-rule:nonzero;stroke:none"
         id="path86" />
      <path
         d="M 1.42188,22497.6 H 37499.6 V 0.644531 H 1.42188 V 352.16 v 351.516 351.514 351.52 351.51 351.52 351.51 351.52 351.51 351.52 351.51 351.52 351.51 351.52 351.52 351.51 351.52 351.51 351.52 351.51 351.52 351.51 351.52 351.52 351.51 351.52 351.51 351.52 351.52 351.5 351.5 351.5 351.6 351.5 351.5 351.5 351.5 351.5 351.5 351.6 351.5 351.5 351.5 351.5 351.5 351.6 351.5 351.5 351.5 351.5 351.5 351.5 351.6 351.5 351.5 351.5 351.5 351.5 351.6 351.5 351.5 351.5 351.5 351.5"
         style="fill:#ff6600;fill-opacity:1;fill-rule:nonzero;stroke:none"
         id="path88" />
      <path
         d="M 1.42188,22497.6 H 37499.6 V 0.644531 H 1.42188 V 352.16 v 351.516 351.514 351.52 351.51 351.52 351.51 351.52 351.51 351.52 351.51 351.52 351.51 351.52 351.52 351.51 351.52 351.51 351.52 351.51 351.52 351.51 351.52 351.52 351.51 351.52 351.51 351.52 351.52 351.5 351.5 351.5 351.6 351.5 351.5 351.5 351.5 351.5 351.5 351.6 351.5 351.5 351.5 351.5 351.5 351.6 351.5 351.5 351.5 351.5 351.5 351.5 351.6 351.5 351.5 351.5 351.5 351.5 351.6 351.5 351.5 351.5 351.5 351.5"
         style="fill:#ff6600;fill-opacity:1;fill-rule:nonzero;stroke:none"
         id="path90" />
      <path
         d="M 1.42188,22497.6 H 37499.6 V 0.644531 H 1.42188 V 352.16 v 351.516 351.514 351.52 351.51 351.52 351.51 351.52 351.51 351.52 351.51 351.52 351.51 351.52 351.52 351.51 351.52 351.51 351.52 351.51 351.52 351.51 351.52 351.52 351.51 351.52 351.51 351.52 351.52 351.5 351.5 351.5 351.6 351.5 351.5 351.5 351.5 351.5 351.5 351.6 351.5 351.5 351.5 351.5 351.5 351.6 351.5 351.5 351.5 351.5 351.5 351.5 351.6 351.5 351.5 351.5 351.5 351.5 351.6 351.5 351.5 351.5 351.5 351.5"
         style="fill:#ff6600;fill-opacity:1;fill-rule:nonzero;stroke:none"
         id="path92" />
      <path
         d="M 1.42188,22497.6 H 37499.6 V 0.644531 H 1.42188 V 352.16 v 351.516 351.514 351.52 351.51 351.52 351.51 351.52 351.51 351.52 351.51 351.52 351.51 351.52 351.52 351.51 351.52 351.51 351.52 351.51 351.52 351.51 351.52 351.52 351.51 351.52 351.51 351.52 351.52 351.5 351.5 351.5 351.6 351.5 351.5 351.5 351.5 351.5 351.5 351.6 351.5 351.5 351.5 351.5 351.5 351.6 351.5 351.5 351.5 351.5 351.5 351.5 351.6 351.5 351.5 351.5 351.5 351.5 351.6 351.5 351.5 351.5 351.5 351.5"
         style="fill:#ff6600;fill-opacity:1;fill-rule:nonzero;stroke:none"
         id="path94" />
      <path
         d="M 1.42188,22497.6 H 37499.6 V 0.644531 H 1.42188 V 352.16 v 351.516 351.514 351.52 351.51 351.52 351.51 351.52 351.51 351.52 351.51 351.52 351.51 351.52 351.52 351.51 351.52 351.51 351.52 351.51 351.52 351.51 351.52 351.52 351.51 351.52 351.51 351.52 351.52 351.5 351.5 351.5 351.6 351.5 351.5 351.5 351.5 351.5 351.5 351.6 351.5 351.5 351.5 351.5 351.5 351.6 351.5 351.5 351.5 351.5 351.5 351.5 351.6 351.5 351.5 351.5 351.5 351.5 351.6 351.5 351.5 351.5 351.5 351.5"
         style="fill:#ff6600;fill-opacity:1;fill-rule:nonzero;stroke:none"
         id="path96" />
      <path
         d="M 1.42188,22497.6 H 37499.6 V 0.644531 H 1.42188 V 352.16 v 351.516 351.514 351.52 351.51 351.52 351.51 351.52 351.51 351.52 351.51 351.52 351.51 351.52 351.52 351.51 351.52 351.51 351.52 351.51 351.52 351.51 351.52 351.52 351.51 351.52 351.51 351.52 351.52 351.5 351.5 351.5 351.6 351.5 351.5 351.5 351.5 351.5 351.5 351.6 351.5 351.5 351.5 351.5 351.5 351.6 351.5 351.5 351.5 351.5 351.5 351.5 351.6 351.5 351.5 351.5 351.5 351.5 351.6 351.5 351.5 351.5 351.5 351.5"
         style="fill:#ff6600;fill-opacity:1;fill-rule:nonzero;stroke:none"
         id="path98" />
      <path
         d="M 1.42188,22497.6 H 37499.6 V 0.644531 H 1.42188 V 352.16 v 351.516 351.514 351.52 351.51 351.52 351.51 351.52 351.51 351.52 351.51 351.52 351.51 351.52 351.52 351.51 351.52 351.51 351.52 351.51 351.52 351.51 351.52 351.52 351.51 351.52 351.51 351.52 351.52 351.5 351.5 351.5 351.6 351.5 351.5 351.5 351.5 351.5 351.5 351.6 351.5 351.5 351.5 351.5 351.5 351.6 351.5 351.5 351.5 351.5 351.5 351.5 351.6 351.5 351.5 351.5 351.5 351.5 351.6 351.5 351.5 351.5 351.5 351.5"
         style="fill:#ff6600;fill-opacity:1;fill-rule:nonzero;stroke:none"
         id="path100" />
      <path
         d="M 1.42188,22497.6 H 37499.6 V 0.644531 H 1.42188 V 352.16 v 351.516 351.514 351.52 351.51 351.52 351.51 351.52 351.51 351.52 351.51 351.52 351.51 351.52 351.52 351.51 351.52 351.51 351.52 351.51 351.52 351.51 351.52 351.52 351.51 351.52 351.51 351.52 351.52 351.5 351.5 351.5 351.6 351.5 351.5 351.5 351.5 351.5 351.5 351.6 351.5 351.5 351.5 351.5 351.5 351.6 351.5 351.5 351.5 351.5 351.5 351.5 351.6 351.5 351.5 351.5 351.5 351.5 351.6 351.5 351.5 351.5 351.5 351.5"
         style="fill:#ff6600;fill-opacity:1;fill-rule:nonzero;stroke:none"
         id="path102" />
      <path
         d="M 1.42188,22497.6 H 37499.6 V 0.644531 H 1.42188 V 352.16 v 351.516 351.514 351.52 351.51 351.52 351.51 351.52 351.51 351.52 351.51 351.52 351.51 351.52 351.52 351.51 351.52 351.51 351.52 351.51 351.52 351.51 351.52 351.52 351.51 351.52 351.51 351.52 351.52 351.5 351.5 351.5 351.6 351.5 351.5 351.5 351.5 351.5 351.5 351.6 351.5 351.5 351.5 351.5 351.5 351.6 351.5 351.5 351.5 351.5 351.5 351.5 351.6 351.5 351.5 351.5 351.5 351.5 351.6 351.5 351.5 351.5 351.5 351.5"
         style="fill:#ff6600;fill-opacity:1;fill-rule:nonzero;stroke:none"
         id="path104" />
      <path
         d="M 1.42188,22497.6 H 37499.6 V 0.644531 H 1.42188 V 352.16 v 351.516 351.514 351.52 351.51 351.52 351.51 351.52 351.51 351.52 351.51 351.52 351.51 351.52 351.52 351.51 351.52 351.51 351.52 351.51 351.52 351.51 351.52 351.52 351.51 351.52 351.51 351.52 351.52 351.5 351.5 351.5 351.6 351.5 351.5 351.5 351.5 351.5 351.5 351.6 351.5 351.5 351.5 351.5 351.5 351.6 351.5 351.5 351.5 351.5 351.5 351.5 351.6 351.5 351.5 351.5 351.5 351.5 351.6 351.5 351.5 351.5 351.5 351.5"
         style="fill:#ff6600;fill-opacity:1;fill-rule:nonzero;stroke:none"
         id="path106" />
      <path
         d="M 1.42188,22497.6 H 37499.6 V 0.644531 H 1.42188 V 352.16 v 351.516 351.514 351.52 351.51 351.52 351.51 351.52 351.51 351.52 351.51 351.52 351.51 351.52 351.52 351.51 351.52 351.51 351.52 351.51 351.52 351.51 351.52 351.52 351.51 351.52 351.51 351.52 351.52 351.5 351.5 351.5 351.6 351.5 351.5 351.5 351.5 351.5 351.5 351.6 351.5 351.5 351.5 351.5 351.5 351.6 351.5 351.5 351.5 351.5 351.5 351.5 351.6 351.5 351.5 351.5 351.5 351.5 351.6 351.5 351.5 351.5 351.5 351.5"
         style="fill:#ff6600;fill-opacity:1;fill-rule:nonzero;stroke:none"
         id="path108" />
      <path
         d="M 1.42188,22497.6 H 37499.6 V 0.644531 H 1.42188 V 352.16 v 351.516 351.514 351.52 351.51 351.52 351.51 351.52 351.51 351.52 351.51 351.52 351.51 351.52 351.52 351.51 351.52 351.51 351.52 351.51 351.52 351.51 351.52 351.52 351.51 351.52 351.51 351.52 351.52 351.5 351.5 351.5 351.6 351.5 351.5 351.5 351.5 351.5 351.5 351.6 351.5 351.5 351.5 351.5 351.5 351.6 351.5 351.5 351.5 351.5 351.5 351.5 351.6 351.5 351.5 351.5 351.5 351.5 351.6 351.5 351.5 351.5 351.5 351.5"
         style="fill:#ff6600;fill-opacity:1;fill-rule:nonzero;stroke:none"
         id="path110" />
      <path
         d="M 1.42188,22497.6 H 37499.6 V 0.644531 H 1.42188 V 352.16 v 351.516 351.514 351.52 351.51 351.52 351.51 351.52 351.51 351.52 351.51 351.52 351.51 351.52 351.52 351.51 351.52 351.51 351.52 351.51 351.52 351.51 351.52 351.52 351.51 351.52 351.51 351.52 351.52 351.5 351.5 351.5 351.6 351.5 351.5 351.5 351.5 351.5 351.5 351.6 351.5 351.5 351.5 351.5 351.5 351.6 351.5 351.5 351.5 351.5 351.5 351.5 351.6 351.5 351.5 351.5 351.5 351.5 351.6 351.5 351.5 351.5 351.5 351.5"
         style="fill:#ff6600;fill-opacity:1;fill-rule:nonzero;stroke:none"
         id="path112" />
      <path
         d="M 1.42188,22497.6 H 37499.6 V 0.644531 H 1.42188 V 352.16 v 351.516 351.514 351.52 351.51 351.52 351.51 351.52 351.51 351.52 351.51 351.52 351.51 351.52 351.52 351.51 351.52 351.51 351.52 351.51 351.52 351.51 351.52 351.52 351.51 351.52 351.51 351.52 351.52 351.5 351.5 351.5 351.6 351.5 351.5 351.5 351.5 351.5 351.5 351.6 351.5 351.5 351.5 351.5 351.5 351.6 351.5 351.5 351.5 351.5 351.5 351.5 351.6 351.5 351.5 351.5 351.5 351.5 351.6 351.5 351.5 351.5 351.5 351.5"
         style="fill:#ff6600;fill-opacity:1;fill-rule:nonzero;stroke:none"
         id="path114" />
      <path
         d="M 1.42188,22497.6 H 37499.6 V 0.644531 H 1.42188 V 352.16 v 351.516 351.514 351.52 351.51 351.52 351.51 351.52 351.51 351.52 351.51 351.52 351.51 351.52 351.52 351.51 351.52 351.51 351.52 351.51 351.52 351.51 351.52 351.52 351.51 351.52 351.51 351.52 351.52 351.5 351.5 351.5 351.6 351.5 351.5 351.5 351.5 351.5 351.5 351.6 351.5 351.5 351.5 351.5 351.5 351.6 351.5 351.5 351.5 351.5 351.5 351.5 351.6 351.5 351.5 351.5 351.5 351.5 351.6 351.5 351.5 351.5 351.5 351.5"
         style="fill:#ff6600;fill-opacity:1;fill-rule:nonzero;stroke:none"
         id="path116" />
      <path
         d="M 1.42188,22497.6 H 37499.6 V 0.644531 H 1.42188 V 352.16 v 351.516 351.514 351.52 351.51 351.52 351.51 351.52 351.51 351.52 351.51 351.52 351.51 351.52 351.52 351.51 351.52 351.51 351.52 351.51 351.52 351.51 351.52 351.52 351.51 351.52 351.51 351.52 351.52 351.5 351.5 351.5 351.6 351.5 351.5 351.5 351.5 351.5 351.5 351.6 351.5 351.5 351.5 351.5 351.5 351.6 351.5 351.5 351.5 351.5 351.5 351.5 351.6 351.5 351.5 351.5 351.5 351.5 351.6 351.5 351.5 351.5 351.5 351.5"
         style="fill:#ff6600;fill-opacity:1;fill-rule:nonzero;stroke:none"
         id="path118" />
      <path
         d="M 1.42188,22497.6 H 37499.6 V 0.644531 H 1.42188 V 352.16 v 351.516 351.514 351.52 351.51 351.52 351.51 351.52 351.51 351.52 351.51 351.52 351.51 351.52 351.52 351.51 351.52 351.51 351.52 351.51 351.52 351.51 351.52 351.52 351.51 351.52 351.51 351.52 351.52 351.5 351.5 351.5 351.6 351.5 351.5 351.5 351.5 351.5 351.5 351.6 351.5 351.5 351.5 351.5 351.5 351.6 351.5 351.5 351.5 351.5 351.5 351.5 351.6 351.5 351.5 351.5 351.5 351.5 351.6 351.5 351.5 351.5 351.5 351.5"
         style="fill:#ff6600;fill-opacity:1;fill-rule:nonzero;stroke:none"
         id="path120" />
      <path
         d="M 1.42188,22497.6 H 37499.6 V 0.644531 H 1.42188 V 352.16 v 351.516 351.514 351.52 351.51 351.52 351.51 351.52 351.51 351.52 351.51 351.52 351.51 351.52 351.52 351.51 351.52 351.51 351.52 351.51 351.52 351.51 351.52 351.52 351.51 351.52 351.51 351.52 351.52 351.5 351.5 351.5 351.6 351.5 351.5 351.5 351.5 351.5 351.5 351.6 351.5 351.5 351.5 351.5 351.5 351.6 351.5 351.5 351.5 351.5 351.5 351.5 351.6 351.5 351.5 351.5 351.5 351.5 351.6 351.5 351.5 351.5 351.5 351.5"
         style="fill:#ff6600;fill-opacity:1;fill-rule:nonzero;stroke:none"
         id="path122" />
      <path
         d="M 1.42188,22497.6 H 37499.6 V 0.644531 H 1.42188 V 352.16 v 351.516 351.514 351.52 351.51 351.52 351.51 351.52 351.51 351.52 351.51 351.52 351.51 351.52 351.52 351.51 351.52 351.51 351.52 351.51 351.52 351.51 351.52 351.52 351.51 351.52 351.51 351.52 351.52 351.5 351.5 351.5 351.6 351.5 351.5 351.5 351.5 351.5 351.5 351.6 351.5 351.5 351.5 351.5 351.5 351.6 351.5 351.5 351.5 351.5 351.5 351.5 351.6 351.5 351.5 351.5 351.5 351.5 351.6 351.5 351.5 351.5 351.5 351.5"
         style="fill:#ff6600;fill-opacity:1;fill-rule:nonzero;stroke:none"
         id="path124" />
      <path
         d="M 1.42188,22497.6 H 37499.6 V 0.644531 H 1.42188 V 352.16 v 351.516 351.514 351.52 351.51 351.52 351.51 351.52 351.51 351.52 351.51 351.52 351.51 351.52 351.52 351.51 351.52 351.51 351.52 351.51 351.52 351.51 351.52 351.52 351.51 351.52 351.51 351.52 351.52 351.5 351.5 351.5 351.6 351.5 351.5 351.5 351.5 351.5 351.5 351.6 351.5 351.5 351.5 351.5 351.5 351.6 351.5 351.5 351.5 351.5 351.5 351.5 351.6 351.5 351.5 351.5 351.5 351.5 351.6 351.5 351.5 351.5 351.5 351.5"
         style="fill:#ff6600;fill-opacity:1;fill-rule:nonzero;stroke:none"
         id="path126" />
      <path
         d="M 1.42188,22497.6 H 37499.6 V 0.644531 H 1.42188 V 352.16 v 351.516 351.514 351.52 351.51 351.52 351.51 351.52 351.51 351.52 351.51 351.52 351.51 351.52 351.52 351.51 351.52 351.51 351.52 351.51 351.52 351.51 351.52 351.52 351.51 351.52 351.51 351.52 351.52 351.5 351.5 351.5 351.6 351.5 351.5 351.5 351.5 351.5 351.5 351.6 351.5 351.5 351.5 351.5 351.5 351.6 351.5 351.5 351.5 351.5 351.5 351.5 351.6 351.5 351.5 351.5 351.5 351.5 351.6 351.5 351.5 351.5 351.5 351.5"
         style="fill:#ff6600;fill-opacity:1;fill-rule:nonzero;stroke:none"
         id="path128" />
      <path
         d="M 1.42188,22497.6 H 37499.6 V 0.644531 H 1.42188 V 352.16 v 351.516 351.514 351.52 351.51 351.52 351.51 351.52 351.51 351.52 351.51 351.52 351.51 351.52 351.52 351.51 351.52 351.51 351.52 351.51 351.52 351.51 351.52 351.52 351.51 351.52 351.51 351.52 351.52 351.5 351.5 351.5 351.6 351.5 351.5 351.5 351.5 351.5 351.5 351.6 351.5 351.5 351.5 351.5 351.5 351.6 351.5 351.5 351.5 351.5 351.5 351.5 351.6 351.5 351.5 351.5 351.5 351.5 351.6 351.5 351.5 351.5 351.5 351.5"
         style="fill:#ff6600;fill-opacity:1;fill-rule:nonzero;stroke:none"
         id="path130" />
      <path
         d="M 1.42188,22497.6 H 37499.6 V 0.644531 H 1.42188 V 703.676 v 703.034 703.03 703.03 703.03 703.03 703.03 703.03 703.03 703.03 703.03 703.04 703.03 703.03 703.02 703 703.1 703 703 703.1 703 703 703.1 703 703 703 703.1 703 703 703.1 703 703"
         style="fill:url(#linearGradient136);fill-opacity:1;fill-rule:nonzero;stroke:none"
         id="path138" />
      <path
         d="m 5151.89,22497.6 -71.23,-445.2 -71.23,-445.1 -71.23,-445.2 -71.24,-445.2 -71.23,-445.2 -71.22,-445.2 -71.23,-445.1 -71.23,-445.2 c 165.32,-20.6 327.24,-44.8 486.06,-72.2 158.82,-27.4 314.53,-58.1 467.41,-91.6 152.88,-33.6 302.94,-69.9 450.46,-108.8 147.52,-38.9 292.49,-80.3 435.22,-123.8 142.71,-43.4 283.18,-89 421.67,-136.4 138.5,-47.3 275.02,-96.4 409.85,-146.8 134.83,-50.4 267.98,-102.2 399.73,-155 131.74,-52.7 262.08,-106.5 391.3,-160.8 129.22,-54.4 257.32,-109.4 384.59,-164.6 127.27,-55.2 253.71,-110.6 379.59,-165.9 125.89,-55.3 251.22,-110.4 376.29,-165.1 125.07,-54.6 249.88,-108.7 374.7,-161.9 124.83,-53.2 249.67,-105.5 374.81,-156.6 125.17,-51 250.57,-100.8 376.67,-148.9 126,-48.2 252.6,-94.6 380.1,-139.1 127.5,-44.5 255.9,-86.9 385.4,-126.9 129.6,-40.1 260.2,-77.7 392.4,-112.6 132.1,-34.8 265.6,-66.9 400.9,-95.8 135.3,-29 272.3,-54.7 411.4,-77 139,-22.3 280,-41 423.4,-55.8 143.3,-14.8 288.9,-25.8 437.1,-32.4 148.2,-6.7 299,-9 452.7,-6.7 153.6,2.3 310.1,9.2 469.8,21.2 159.6,12 322.4,29 488.7,51.4 166.2,22.4 335.9,50.2 509.2,83.8 173.4,33.6 350.5,73 531.6,118.5 181.1,45.6 366.2,97.3 555.6,155.5 189.4,58.2 383.1,123 581.3,194.7 198.3,71.7 401.1,150.3 608.7,236.1 207.7,85.9 420.2,179.1 637.9,279.9 217.6,100.8 440.4,209.3 668.6,325.8 228.3,116.6 461.9,241.1 701.2,374.1 98.2,73.5 199.1,144.8 302.5,213.9 103.4,69.2 209.4,136.2 317.7,200.9 108.3,64.7 219,127.2 331.8,187.5 112.9,60.2 227.9,118.2 345,173.8 117.1,55.6 236.2,109 357.1,159.9 120.9,51 243.7,99.5 368.1,145.7 124.5,46.2 250.6,89.9 378.2,131.2 127.6,41.4 256.7,80.2 387.2,116.5 130.4,36.4 262.2,70.2 395.1,101.5 132.9,31.3 266.9,60.1 402,86.2 135,26.2 271,49.7 407.9,70.6 136.8,20.9 274.4,39.2 412.7,54.8 138.2,15.6 277.1,28.5 416.5,38.7 139.3,10.2 279.1,17.6 419.2,22.3 140.1,4.6 280.5,6.5 421,5.6 140.5,-0.9 281.1,-4.7 421.6,-11.3 140.6,-6.6 281,-16.1 421.3,-28.5 140.2,-12.4 280.3,-27.8 419.9,-46 139.6,-18.3 278.8,-39.6 417.4,-63.8 138.6,-24.2 276.7,-51.5 413.9,-81.8 137.3,-30.3 273.9,-63.6 409.5,-100.1 135.6,-36.4 270.3,-76 403.8,-118.6 133.6,-42.7 266.1,-88.6 397.3,-137.6 131.2,-49 261.2,-101.2 389.7,-156.6 128.5,-55.4 255.5,-114.1 380.9,-176 125.5,-62 249.3,-127.2 371.3,-195.8 122,-68.5 242.2,-140.4 360.5,-215.6 118.3,-75.3 234.5,-153.9 348.7,-235.9 114.2,-82 226.2,-167.5 335.9,-256.4 109.7,-88.9 217.1,-181.2 322,-277.1 104.9,-95.9 207.3,-195.3 307.1,-298.2 99.8,-102.9 196.9,-209.4 291.2,-319.5 124.6,-145.5 249.9,-278.9 375.9,-401.6 125.9,-122.6 252.4,-234.5 379.5,-336.8 127,-102.3 254.5,-195.1 382.4,-279.6 127.9,-84.5 256.2,-160.7 384.7,-229.9 128.6,-69.2 257.4,-131.4 386.4,-187.9 129,-56.4 258.1,-107.1 387.3,-153.4 129.2,-46.2 258.5,-87.9 387.7,-126.4 129.2,-38.5 258.3,-73.8 387.3,-107.2 129,-33.3 257.8,-64.6 386.3,-95.3 128.6,-30.7 256.9,-60.7 384.7,-91.2 127.9,-30.5 255.4,-61.6 382.4,-94.6 127.1,-32.9 253.6,-67.7 379.5,-105.5 125.9,-37.9 251.2,-78.8 375.8,-124.1 124.6,-45.3 248.5,-94.9 371.6,-150.2 123.1,-55.3 245.3,-116.1 366.6,-183.9 121.3,-67.8 241.7,-142.4 361.1,-225.2 v 514.3 514.2 514.2 514.2 514.3 514.2 514.2 514.2 514.3 514.2 514.2 514.2 514.3 514.2 514.2 514.2 h -505.4 -505.5 -505.4 -505.4 -505.5 -505.4 -505.4 -505.5 -505.4 -505.4 -505.5 -505.4 -505.4 -505.5 -505.4 -505.4 -505.5 -505.4 -505.4 -505.5 -505.4 -505.4 -505.5 -505.4 -505.4 -505.5 -505.4 -505.4 -505.5 -505.4 -505.4 -505.5 -505.4 -505.4 -505.5 -505.4 -505.4 -505.5 -505.4 -505.4 -505.5 -505.4 -505.4 -505.5 -505.4 -505.4 -505.5 -505.4 -505.4 -505.5 -505.4 -505.4 -505.5 -505.4 -505.42 -505.43 -505.44 -505.43 -505.43 -505.43 -505.44 -505.43 -505.43 -505.43"
         style="fill:url(#linearGradient144);fill-opacity:1;fill-rule:nonzero;stroke:none"
         id="path146" />
      <path
         d="m 1.42188,22497.6 v -6286 c 82.90622,-20.6 166.34012,-40 250.23412,-58.1 83.899,-18 168.262,-34.8 253.035,-50.2 84.778,-15.4 169.965,-29.3 255.508,-41.8 85.547,-12.5 171.449,-23.4 257.651,-32.8 86.21,-9.3 172.72,-17.1 259.47,-23.1 86.76,-6 173.76,-10.4 260.96,-12.9 87.2,-2.5 174.59,-3.2 262.12,-2 87.53,1.2 175.2,4.3 262.96,9.4 87.75,5.1 175.59,12.2 263.46,21.5 87.87,9.2 175.77,20.5 263.65,34.1 87.87,13.6 175.72,29.3 263.49,47.4 87.77,18.1 175.47,38.5 263.03,61.3 87.56,22.8 174.98,48 262.22,75.7 87.24,27.8 174.28,58 261.09,90.9 86.81,32.8 173.37,68.3 259.63,106.5 86.27,38.2 172.24,79.1 257.86,122.8 124.62,63.6 247.39,126.4 368.44,188.2 121.06,61.8 240.4,122.7 358.18,182.5 117.79,59.9 234.02,118.7 348.84,176.5 114.82,57.8 228.24,114.5 340.41,170 112.16,55.6 223.07,110 332.89,163.2 109.81,53.2 218.53,105.3 326.3,156 107.77,50.8 214.59,100.3 320.61,148.4 106.03,48.2 211.27,95 315.86,140.5 104.59,45.4 208.54,89.5 312.01,132.1 103.46,42.6 206.44,83.7 309.07,123.3 102.64,39.7 204.95,77.8 307.06,114.3 102.13,36.5 204.06,71.5 305.97,104.8 101.91,33.3 203.78,64.9 305.79,94.8 102,30 204.12,58.2 306.52,84.7 102.4,26.4 205.07,51.1 308.17,74 103.1,22.8 206.63,43.9 310.74,63 104.11,19.1 208.8,36.3 314.23,51.6 105.42,15.2 211.58,28.5 318.63,39.8 107.09,11.2 214.99,20.5 323.99,27.6 108.9,7.2 218.9,12.2 330.1,15.1 111.2,2.9 223.6,3.7 337.4,2.2 113.7,-1.5 228.8,-5.1 345.4,-11.1 116.6,-6 234.6,-14.2 354.4,-24.8 119.7,-10.6 241.1,-23.6 364.3,-38.9 123.1,-15.3 248.1,-33.1 375.1,-53.3 126.9,-20.2 255.8,-42.9 386.8,-68.2 131,-25.2 264.1,-53 399.5,-83.3 135.4,-30.4 273,-63.3 413.1,-99 140,-35.6 282.5,-73.9 427.5,-114.9 145,-41 292.6,-84.7 442.9,-131.3 150.4,-46.5 303.4,-95.8 459.3,-148 155.9,-52.1 314.7,-107.2 476.5,-165.1 150.6,-53.9 302.3,-90.1 454.7,-110.2 152.4,-20 305.4,-23.9 458.9,-13.2 153.5,10.8 307.4,36.1 461.4,74.5 154,38.3 308,89.7 461.8,152.6 153.9,62.9 307.5,137.3 460.5,221.5 153.1,84.3 305.6,178.5 457.2,281 151.7,102.5 302.4,213.4 452,331.1 149.6,117.6 298.1,242.1 445,371.7 147,129.7 292.4,264.6 436,403.1 143.7,138.5 285.5,280.7 425.2,425 139.8,144.3 277.4,290.7 412.5,437.6 135.2,146.9 267.9,294.4 397.9,440.8 129.9,146.4 257.2,291.7 381.3,434.5 124.2,142.8 245.3,283 363,419 117.7,136 232,267.9 342.6,394 110.7,126.1 217.6,246.5 320.5,359.6 h -345.8 -345.8 -345.9 -345.8 -345.8 -345.8 -345.9 -345.8 -345.8 -345.8 -345.9 -345.8 -345.8 -345.9 -345.8 -345.8 -345.8 -345.9 -345.8 -345.8 -345.8 -345.9 -345.8 -345.8 -345.8 -345.9 -345.8 -345.8 -345.9 -345.8 -345.8 -345.8 -345.9 -345.8 -345.8 H 9684.56 9338.74 8992.91 8647.08 8301.26 7955.43 7609.61 7263.78 6917.95 6572.13 6226.3 5880.47 5534.64 5188.82 4842.99 4497.16 4151.34 3805.51 3459.69 3113.86 2768.03 2422.21 2076.38 1730.55 1384.73 1038.9 693.074 347.246 1.42188"
         style="fill:url(#linearGradient152);fill-opacity:1;fill-rule:nonzero;stroke:none"
         id="path154" />
      <path
         d="M 1.42188,7276.57 V 0.644531 H 21720 C 21622.5,364.434 21516.8,692.59 21402.5,988.148 c -114.2,295.562 -237.1,558.522 -368.9,791.912 -131.7,233.39 -272.5,437.22 -422.5,614.51 -150,177.29 -309.3,328.05 -478.3,455.31 -169,127.26 -347.6,231.01 -536.3,314.3 -188.7,83.29 -387.4,146.12 -596.5,191.5 -209.2,45.39 -428.7,73.35 -659,86.9 -230.3,13.55 -471.3,12.7 -723.5,0.49 -126.1,-6.11 -255,-15.07 -386.7,-26.48 -131.7,-11.41 -266.2,-25.29 -403.6,-41.25 -137.4,-15.96 -277.7,-34 -420.9,-53.75 -143.2,-19.75 -289.4,-41.21 -438.4,-63.99 -149.1,-22.78 -301.2,-46.88 -456.3,-71.94 -155,-25.05 -313.1,-51.04 -474.3,-77.61 -161.1,-26.57 -325.3,-53.7 -492.6,-81.02 -167.3,-27.32 -337.7,-54.83 -511.3,-82.15 -173.5,-27.32 -350.2,-54.45 -530.1,-81 -179.9,-26.56 -363,-52.55 -549.3,-77.59 -186.4,-25.04 -376,-49.13 -568.8,-71.88 -192.9,-22.77 -389,-44.2 -588.5,-63.93 -199.5,-19.72 -402.3,-37.74 -608.5,-53.67 -206.2,-15.93 -415.8,-29.77 -628.8,-41.15 -213,-11.38 -429.4,-20.3 -649.27,-26.37 -219.9,-6.06 -443.25,-9.29 -670.13,-9.29 -127.36,0 -253.84,2.48 -379.43,7.34 -125.58,4.86 -250.27,12.11 -374.05,21.66 -123.79,9.55 -246.67,21.4 -368.64,35.47 -121.98,14.06 -243.04,30.34 -363.18,48.75 -120.15,18.41 -239.37,38.94 -357.67,61.51 -118.3,22.57 -235.67,47.19 -352.1,73.76 -116.44,26.56 -231.94,55.09 -346.5,85.47 -114.55,30.39 -228.17,62.65 -340.83,96.68 -112.66,34.04 -224.37,69.85 -335.13,107.36 -110.75,37.5 -220.54,76.7 -329.37,117.51 -108.83,40.81 -216.69,83.22 -323.57,127.15 -106.88,43.93 -212.79,89.39 -317.71,136.27 -104.93,46.89 -208.87,95.2 -311.82,144.87 -102.95,49.66 -204.9,100.67 -305.86,152.93 -100.96,52.27 -200.91,105.8 -299.86,160.5 -98.95,54.7 -196.89,110.57 -293.82,167.52 -96.92,56.96 -192.83,115 -287.72,174.04 -94.89,59.04 -188.75,119.08 -281.58,180.03 -92.83,60.95 -184.62,122.81 -275.38,185.5 -90.76,62.68 -180.48,126.2 -269.15,190.45 -88.67,64.25 -176.29,129.23 -262.85,194.87 -86.57,65.64 -172.07,131.93 -256.51,198.79 -84.45,66.85 -167.82,134.27 -250.13,202.16 -82.31,67.9 -163.54,136.28 -243.69,205.04 -80.16,68.77 -159.23,137.92 -237.21,207.38 -77.99,69.46 -154.88,139.22 -230.68,209.2 -75.79,69.99 -150.49,140.18 -224.09,210.51 -73.595,70.33 -146.087,140.79 -217.466,211.29 -71.375,70.51 -141.641,141.05 -210.785,211.55 -69.141,70.51 -137.164,140.96 -204.055,211.29 -66.894,70.33 -132.66,140.53 -197.285,210.51 -64.625,69.98 -128.1134,139.75 -190.45712,209.21"
         style="fill:url(#linearGradient160);fill-opacity:1;fill-rule:nonzero;stroke:none"
         id="path162" />
      <path
         d="m 12643.1,0.644531 c 106,39.773469 208.4,83.710969 307.3,131.449469 98.9,47.734 194.5,99.265 286.9,154.226 92.4,54.961 181.7,113.344 268.3,174.789 86.6,61.442 170.4,125.946 251.7,193.133 81.4,67.188 160.3,137.067 237.1,209.262 76.7,72.195 151.4,146.706 224.3,223.176 72.8,76.46 143.9,154.87 213.5,234.87 69.6,79.99 137.7,161.56 204.7,244.34 66.9,82.79 132.8,166.78 197.7,251.62 65,84.83 129.2,170.51 192.8,256.65 63.7,86.15 126.8,172.77 189.8,259.49 62.9,86.72 125.7,173.55 188.6,260.1 62.9,86.55 126,172.84 189.5,258.5 63.5,85.65 127.5,170.66 192.3,254.67 64.8,84.01 130.3,167.02 197,248.64 66.7,81.63 134.4,161.89 203.7,240.39 69.2,78.51 139.8,155.27 212.2,229.92 72.4,74.65 146.6,147.18 222.8,217.24 76.2,70.05 154.6,137.61 235.3,202.33 80.7,64.71 163.8,126.57 249.7,185.21 85.8,58.64 174.4,114.06 266,165.88 91.6,51.83 186.3,100.06 284.3,144.33 98,44.27 199.5,84.58 304.6,120.56 105.1,35.98 213.9,67.63 326.7,94.58 112.8,26.95 229.6,49.19 350.8,66.37 121.2,17.18 246.7,29.29 376.9,35.96 130.2,6.67 265,7.9 404.9,3.32 139.8,-4.57 284.6,-14.96 434.8,-31.52 150.1,-16.56 305.5,-39.31 466.6,-68.59 161.1,-29.29 327.8,-65.13 500.5,-107.88 172.6,-42.75 351.3,-92.41 536.2,-149.37 184.9,-56.95 376.1,-121.19 573.9,-193.09 140,-48.06 280.8,-92.75 422.2,-134.15 141.4,-41.41 283.4,-79.52 425.8,-114.44 142.5,-34.92 285.5,-66.65 428.7,-95.26 143.3,-28.62 286.9,-54.14 430.6,-76.63 143.7,-22.5 287.6,-41.98 431.6,-58.54 143.9,-16.55 287.8,-30.18 431.6,-40.98 143.8,-10.8 287.4,-18.76 430.8,-23.98 143.4,-5.21 286.4,-7.68 429.1,-7.5 142.6,0.17 284.8,3.01 426.4,8.42 141.6,5.4 282.7,13.36 422.9,23.8 140.3,10.44 279.9,23.35 418.5,38.65 138.7,15.29 276.4,32.97 413.1,52.94 136.8,19.97 272.5,42.24 406.9,66.7 134.5,24.47 267.8,51.15 399.8,79.93 131.9,28.78 262.6,59.68 391.7,92.59 129.1,32.93 256.7,67.86 382.7,104.74 126,36.87 250.3,75.67 372.9,116.32 122.5,40.65 243.3,83.14 362.1,127.37 118.8,44.25 235.7,90.23 350.5,137.89 114.7,47.65 227.4,96.97 337.8,147.85 110.5,50.88 218.7,103.34 324.5,157.27 105.7,53.94 209.1,109.35 310,166.16 100.8,56.81 199.1,115.01 294.7,174.5 95.6,59.5 188.6,120.29 278.6,182.3 90.1,62.01 177.3,125.23 261.5,189.56 84.2,64.34 165.4,129.79 243.5,196.27 78.1,66.49 153,134 224.6,202.45 71.6,68.46 139.9,137.85 204.8,208.09 64.9,70.24 126.3,141.32 184.1,213.17 57.8,71.85 112.1,144.45 162.5,217.72 50.5,73.28 97.2,147.22 140,221.74 42.8,74.52 81.8,149.61 116.6,225.2 71.6,167.05 126.3,332.78 166.4,497.01 40,164.24 65.4,326.99 78.5,488.07 13,161.09 13.7,320.52 4.3,478.13 -9.4,157.61 -28.9,313.39 -56.3,467.19 -27.3,153.79 -62.5,305.6 -103.2,455.25 -40.8,149.66 -87.1,297.15 -136.7,442.3 -49.6,145.2 -102.5,288.1 -156.4,428.4 -53.9,140.4 -108.8,278.3 -162.5,413.5 -53.7,135.3 -106.2,267.8 -155.1,397.6 -48.9,129.8 -94.4,256.7 -134,380.7 -39.7,124 -73.5,244.9 -99.4,362.8 -25.8,117.8 -43.6,232.5 -51,343.9 -7.5,111.3 -4.6,219.4 10.8,324 15.5,104.5 43.5,205.6 86.4,303.1 42.9,97.4 100.6,191.2 175.5,281.2 74.8,90 166.8,176.2 278.2,258.4 201.7,71.7 381.9,152.8 543.5,241.8 161.7,89.1 304.7,186 432,289.3 127.4,103.4 239,213.1 337.7,327.7 98.8,114.6 184.7,234 260.6,356.9 75.9,122.8 141.9,248.9 200.7,376.9 58.8,128 110.6,257.8 158.1,388 47.5,130.1 90.7,260.5 132.6,389.7 41.9,129.2 82.4,257.2 124.5,382.5 42,125.3 85.6,247.8 133.5,366 47.9,118.3 100.2,232.3 159.8,340.6 59.6,108.2 126.4,210.6 203.3,305.8 76.9,95.1 164,183 264.1,262 100,79 213,149.2 342,209.1 128.9,59.9 273.7,109.4 437.2,147.1 163.5,37.6 345.7,63.4 549.6,75.8 203.9,12.4 429.3,11.4 679.3,-4.4 v -565.3 -565.2 -565.2 -565.2 -565.2 -565.3 -565.2 -565.2 -565.2 -565.2 -565.3 -565.2 -565.2 -565.2 V 9609.37 9044.15 8478.93 7913.71 7348.49 6783.27 6218.05 5652.84 5087.62 4522.39 3957.18 3391.96 2826.74 2261.52 1696.3 1131.08 565.863 0.644531 h -388.4 -388.4 -388.4 -388.3 -388.4 -388.4 -388.4 -388.4 -388.4 -388.3 -388.4 -388.4 -388.4 -388.4 -388.4 -388.3 -388.4 -388.4 -388.4 -388.4 -388.4 -388.3 -388.4 -388.4 -388.4 -388.4 -388.4 -388.3 -388.4 -388.4 -388.4 -388.4 -388.4 -388.3 -388.4 -388.4 -388.4 -388.4 -388.4 -388.3 -388.4 -388.4 -388.4 -388.4 -388.3 -388.4 -388.4 -388.4 -388.4 -388.4 -388.3 -388.4 -388.4 -388.4 -388.4 -388.4 -388.3 -388.4 -388.4 -388.4 -388.4 -388.4 -388.3 -388.4"
         style="fill:url(#linearGradient168);fill-opacity:1;fill-rule:nonzero;stroke:none"
         id="path170" />
      <path
         d="m 37499.6,18904.5 c -53.2,-12.6 -110.1,-26.4 -170.5,-41.7 -60.5,-15.2 -124.3,-31.7 -191.3,-49.6 -67,-18 -137.1,-37.3 -209.9,-58 -72.9,-20.8 -148.6,-43 -226.6,-66.7 -78.1,-23.7 -158.6,-48.9 -241.3,-75.6 -82.6,-26.7 -167.3,-55 -253.8,-84.9 -86.5,-29.9 -174.7,-61.4 -264.4,-94.6 -89.6,-33.1 -180.7,-67.9 -272.9,-104.5 -92.2,-36.5 -185.4,-74.8 -279.4,-114.8 -94,-40 -188.7,-81.8 -283.9,-125.4 -95.2,-43.6 -190.7,-89 -286.3,-136.3 -95.7,-47.3 -191.4,-96.5 -286.8,-147.7 -95.4,-51.1 -190.6,-104.2 -285.1,-159.2 -94.5,-55 -188.5,-112.1 -281.5,-171.2 -93,-59 -185,-120.2 -275.7,-183.4 -90.8,-63.2 -180.3,-128.5 -268.1,-196 -59.3,-45.5 -117.9,-92.1 -175.6,-139.7 -57.8,-47.5 -114.7,-96.1 -170.6,-145.8 -55.9,-49.6 -110.9,-100.2 -164.9,-152 -53.9,-51.7 -106.8,-104.4 -158.5,-158.2 -51.8,-53.9 -102.3,-108.8 -151.6,-164.7 -49.3,-56 -97.3,-113 -144,-171.2 -46.6,-58.1 -91.8,-117.4 -135.6,-177.7 -43.8,-60.4 -86,-121.8 -126.7,-184.4 -40.7,-62.6 -79.8,-126.3 -117.1,-191.1 -37.4,-64.9 -73,-130.9 -106.9,-198 -33.8,-67.2 -65.9,-135.5 -96,-205 -30.1,-69.4 -58.2,-140.1 -84.4,-211.9 -26.1,-71.8 -50.3,-144.8 -72.2,-219 -22,-74.3 -41.8,-149.7 -59.4,-226.3 -17.6,-76.6 -32.9,-154.5 -45.9,-233.6 -12.9,-79 -23.6,-159.3 -31.7,-240.9 -8.1,-81.5 -13.8,-164.3 -16.9,-248.3 -3.2,-84 -3.7,-169.1 -1.6,-255.6 2.1,-86.4 6.9,-174.1 14.5,-263 7.6,-88.9 17.9,-179 31.1,-270.4 13.2,-91.5 29.2,-184.1 48.2,-278.1 19.1,-94 41.1,-189.2 66.1,-285.7 25.1,-96.6 53.2,-194.4 84.5,-293.5 31.3,-99.2 65.8,-199.6 103.5,-301.4 37.8,-101.7 78.8,-204.8 123.2,-309.3 44.3,-104.4 92.1,-210.2 143.3,-317.3 51.2,-107.2 105.9,-215.6 164.2,-325.5 58.2,-109.9 120.1,-221.1 185.6,-333.7 65.5,-112.6 134.6,-226.6 207.6,-342 72.9,-115.4 149.6,-232.2 230.2,-350.44 80.6,-118.21 165,-237.85 253.5,-358.92 88.4,-121.07 180.8,-243.56 277.3,-367.51 89.5,-119.34 178.4,-243.81 264.5,-372.39 86,-128.58 169.2,-261.26 247.2,-397 77.9,-135.75 150.7,-274.56 215.8,-415.41 65.2,-140.84 122.8,-283.72 170.5,-427.59 47.7,-143.86 85.4,-288.73 111,-433.55 25.5,-144.83 38.8,-289.61 37.5,-433.32 -1.3,-143.71 -17.2,-286.34 -50,-426.86 -32.8,-140.52 -82.5,-278.93 -151.6,-414.19 -53.4,-101.45 -116.3,-199.18 -188,-293.3 -71.8,-94.12 -152.2,-184.64 -240.8,-271.65 -88.6,-87.01 -185.4,-170.53 -289.5,-250.67 -104.2,-80.12 -215.8,-156.87 -334.2,-230.35 -118.4,-73.47 -243.5,-143.68 -374.8,-210.72 -131.2,-67.04 -268.6,-130.93 -411.4,-191.76 -142.8,-60.84 -291.1,-118.62 -444.1,-173.47 -153,-54.86 -310.8,-106.77 -472.7,-155.87 -161.9,-49.09 -327.7,-95.38 -496.9,-139.02 -169.2,-43.63 -341.6,-84.63 -516.7,-123.13 -175,-38.5 -352.7,-74.5 -532.2,-108.18 -179.6,-33.69 -361,-65.03 -543.6,-94.21 -182.7,-29.18 -366.5,-56.19 -550.8,-81.19 -184.4,-24.99 -369.2,-47.98 -553.8,-69.11 -184.6,-21.13 -369,-40.41 -552.5,-58 -183.5,-17.58 -366.1,-33.47 -547.2,-47.83 -181,-14.36 -360.4,-27.19 -537.5,-38.64 -177.1,-11.44 -351.9,-21.52 -523.7,-30.37 -171.8,-8.86 -340.6,-16.5 -505.8,-23.09 -165.1,-6.59 -326.5,-12.12 -483.5,-16.75 -157,-4.63 -309.6,-8.37 -457.2,-11.36 -147.5,-3 -289.9,-5.26 -426.6,-6.93 -136.6,-1.68 -267.4,-2.78 -391.8,-3.46 -124.3,-0.69 -242.2,-0.95 -352.8,-0.95 -157.6,0 -310.8,-3.74 -459.6,-11 -148.9,-7.25 -293.5,-18.02 -433.9,-32.06 -140.4,-14.05 -276.7,-31.37 -408.9,-51.74 -132.2,-20.36 -260.4,-43.77 -384.6,-70 -124.2,-26.22 -244.5,-55.26 -361,-86.87 -116.5,-31.61 -229.2,-65.8 -338.2,-102.34 -109,-36.54 -214.3,-75.42 -316,-116.41 -101.7,-40.99 -199.9,-84.1 -294.6,-129.08 -94.7,-44.99 -185.9,-91.85 -273.9,-140.36 -87.9,-48.51 -172.5,-98.66 -253.8,-150.23 -81.4,-51.56 -159.6,-104.54 -234.6,-158.7 -75.1,-54.16 -147.1,-109.49 -216.1,-165.77 -68.9,-56.28 -135,-113.51 -198.1,-171.45 -63.2,-57.94 -123.5,-116.6 -181.1,-175.73 -57.5,-59.13 -112.4,-118.74 -164.6,-178.6 -52.2,-59.86 -101.8,-119.96 -148.9,-180.08 -46.1,-58.95 -89.9,-117.91 -131.4,-176.66 -41.6,-58.75 -80.8,-117.29 -117.9,-175.4 -37.1,-58.11 -72.1,-115.789 -105,-172.813 -32.9,-57.023 -63.8,-113.39 -92.8,-168.883 -29,-55.492 -56,-110.109 -81.3,-163.625 -25.3,-53.515 -48.8,-105.933 -70.6,-157.027 -21.9,-51.094 -42,-100.871 -60.6,-149.102 -18.6,-48.23 -35.7,-94.9175 -51.3,-139.835469 h 149.5 c 15.4,42.523469 32,86.566369 50.1,131.937469 18.1,45.371 37.6,92.074 58.6,139.918 21,47.844 43.5,96.828 67.7,146.773 24.1,49.938 49.9,100.836 77.4,152.5 27.5,51.665 56.7,104.094 87.7,157.106 31.1,53.012 63.9,106.601 98.7,160.582 34.8,53.984 71.6,108.359 110.3,162.939 38.8,54.58 79.6,109.37 122.5,164.17 45.6,58.21 93.6,116.43 144.1,174.45 50.5,58 103.5,115.8 159.2,173.15 55.7,57.35 114,114.25 175.1,170.48 61.1,56.23 125,111.78 191.8,166.43 66.8,54.65 136.5,108.4 209.3,161.02 72.7,52.61 148.5,104.1 227.5,154.22 78.9,50.13 161,98.89 246.5,146.06 85.4,47.17 174.1,92.76 266.3,136.52 92.1,43.76 187.7,85.71 286.8,125.6 99.2,39.89 201.9,77.74 308.2,113.31 106.4,35.57 216.5,68.87 330.4,99.65 113.9,30.79 231.6,59.07 353.3,84.61 121.6,25.55 247.2,48.36 376.9,68.21 129.7,19.84 263.5,36.72 401.4,50.41 138,13.69 280.2,24.19 426.7,31.26 146.6,7.07 297.4,10.73 452.8,10.73 110.8,0 228.9,0.24 353.5,0.89 124.6,0.66 255.7,1.72 392.5,3.36 137,1.64 279.7,3.84 427.5,6.79 147.8,2.94 300.8,6.63 458.2,11.21 157.4,4.58 319.2,10.06 484.7,16.6 165.6,6.54 334.8,14.15 507.2,22.99 172.3,8.83 347.7,18.89 525.4,30.34 177.7,11.44 357.8,24.28 539.5,38.68 181.7,14.39 365.1,30.34 549.5,48 184.3,17.67 369.7,37.05 555.2,58.31 185.6,21.26 371.5,44.4 556.9,69.59 185.5,25.19 370.5,52.42 554.4,81.86 183.9,29.43 366.7,61.08 547.7,95.1 181,34.01 360.2,70.4 536.9,109.33 176.7,38.92 350.9,80.38 521.9,124.53 171,44.16 338.8,91.01 502.7,140.72 164,49.72 324.1,102.28 479.8,157.9 155.7,55.62 306.8,114.29 452.8,176.24 145.9,61.94 286.6,127.15 421.4,195.83 134.8,68.69 263.6,140.85 385.8,216.71 122.2,75.85 237.7,155.39 345.8,238.83 108.1,83.44 208.9,170.78 301.5,262.22 92.6,91.45 177.2,187 252.8,286.88 75.7,99.87 142.6,204.06 199.9,312.79 57.3,108.71 104.7,221.91 141.6,339.56 36.9,117.65 63.2,239.75 78.4,366.28 15.1,126.53 18.9,257.49 10.9,392.87 -8,135.37 -28,275.15 -60.6,419.32 -16.2,72.08 -35.6,145.27 -58.2,219.59 -22.6,74.32 -48.4,149.77 -77.4,226.38 -29.1,76.61 -61.4,154.38 -97.1,233.32 -35.6,78.95 -74.7,159.08 -117.1,240.42 -42.4,81.34 -88.3,163.88 -137.7,247.66 -49.4,83.78 -102.3,168.79 -158.7,255.06 -56.5,86.27 -116.6,173.8 -180.3,262.61 -63.8,88.81 -131.1,178.91 -202.3,270.32 -95.6,122.84 -187.1,244.17 -274.6,363.99 -87.6,119.82 -171.1,238.14 -250.8,354.97 -79.6,116.87 -155.4,232.17 -227.4,346.07 -72,113.9 -140.2,226.3 -204.8,337.3 -64.5,110.9 -125.4,220.4 -182.8,328.5 -57.3,108.1 -111.1,214.7 -161.4,319.9 -50.4,105.3 -97.3,209.1 -140.8,311.5 -43.5,102.4 -83.7,203.4 -120.7,303 -37,99.6 -70.7,197.9 -101.3,294.8 -30.6,96.8 -58.1,192.3 -82.6,286.5 -24.5,94.2 -45.9,187 -64.4,278.5 -18.6,91.5 -34.2,181.6 -47.1,270.5 -12.8,88.8 -22.8,176.3 -30.1,262.5 -7.4,86.3 -12,171.2 -14.1,254.9 -2,83.6 -1.5,166 1.5,247.1 3,81.1 8.5,160.9 16.3,239.5 7.9,78.6 18.1,156 30.6,232.3 12.5,76.2 27.2,151.2 44.1,225.1 16.9,73.8 36,146.5 57.2,218.1 21.2,71.5 44.4,141.9 69.6,211.2 25.2,69.3 52.3,137.4 81.4,204.4 29,67 59.9,132.9 92.6,197.7 32.6,64.8 67.1,128.6 103.2,191.2 36.1,62.6 73.9,124.2 113.2,184.7 39.4,60.4 80.3,119.9 122.7,178.2 42.3,58.4 86.2,115.8 131.4,172.1 45.2,56.3 91.8,111.6 139.7,165.8 47.9,54.3 97,107.5 147.3,159.8 50.3,52.3 101.8,103.5 154.3,153.8 52.6,50.3 106.2,99.7 160.8,148 54.5,48.4 110.1,95.8 166.5,142.2 56.4,46.5 113.7,92 171.8,136.6 85,65.4 171.7,128.6 259.7,190 88,61.3 177.3,120.6 267.5,178 90.3,57.4 181.5,112.8 273.3,166.4 91.9,53.6 184.4,105.2 277.2,155.1 92.8,49.8 186,97.8 279.1,144 93.1,46.3 186.2,90.7 279,133.4 92.8,42.7 185.2,83.6 277,122.9 91.8,39.2 182.9,76.8 273,112.7 90.1,36 179.2,70.3 267.1,103 87.8,32.7 174.3,63.8 259.1,93.4 84.9,29.5 168.1,57.6 249.3,84.1 81.2,26.6 160.5,51.6 237.5,75.2 76.9,23.6 151.6,45.8 223.7,66.6 72,20.8 141.4,40.1 207.9,58.2 66.5,18 130,34.7 190.2,50.1 60.3,15.4 117.2,29.5 170.6,42.4 v 146.5"
         style="fill:#ffffff;fill-opacity:1;fill-rule:nonzero;stroke:none"
         id="path172" />
      <path
         d="m 15538.5,5944.66 c -80.9,0.23 -161.8,-0.87 -242.7,-3.3 -80.8,-2.42 -161.7,-6.17 -242.5,-11.23 -80.9,-5.06 -161.7,-11.43 -242.5,-19.1 -80.7,-7.68 -161.5,-16.65 -242.2,-26.93 -61.5,-7.83 -123,-16.4 -184.4,-25.72 -61.5,-9.31 -122.9,-19.37 -184.3,-30.17 -61.3,-10.8 -122.7,-22.33 -184,-34.6 -61.3,-12.27 -122.6,-25.27 -183.8,-39 -61.2,-13.73 -122.4,-28.19 -183.6,-43.37 -61.1,-15.19 -122.2,-31.09 -183.3,-47.71 -61,-16.63 -122,-33.97 -183,-52.03 -61,-18.05 -121.9,-36.82 -182.7,-56.3 -60.9,-19.48 -121.6,-39.67 -182.4,-60.56 -60.7,-20.89 -121.4,-42.49 -182,-64.79 -60.6,-22.3 -121.2,-45.29 -181.6,-68.98 -60.5,-23.69 -120.9,-48.07 -181.3,-73.15 -60.3,-25.08 -120.6,-50.84 -180.8,-77.29 -60.2,-26.45 -120.3,-53.58 -180.3,-81.4 -60.1,-27.81 -120.1,-56.31 -179.9,-85.48 -59.9,-29.17 -119.7,-59.01 -179.4,-89.53 -59.8,-30.52 -119.4,-61.7 -178.9,-93.56 -59.6,-31.85 -119,-64.37 -178.4,-97.55 -59.3,-33.18 -118.6,-67.02 -177.8,-101.51 -59.1,-34.5 -118.2,-69.65 -177.2,-105.45 -58.9,-35.81 -117.8,-72.26 -176.6,-109.36 -58.7,-37.11 -117.4,-74.86 -175.9,-113.25 -58.6,-38.39 -117,-77.42 -175.4,-117.09 -58.3,-39.66 -116.5,-79.97 -174.6,-120.91 -58.1,-40.93 -116.1,-82.5 -174,-124.7 -57.8,-42.2 -115.59,-85.02 -173.21,-128.47 -57.62,-43.45 -115.12,-87.52 -172.49,-132.21 -57.37,-44.68 -114.62,-89.99 -171.73,-135.91 -57.11,-45.91 -114.1,-92.44 -170.94,-139.58 -56.85,-47.14 -113.56,-94.88 -170.14,-143.24 -56.57,-48.35 -113.01,-97.3 -169.3,-146.85 -56.29,-49.55 -112.44,-99.7 -168.45,-150.45 -50.96,-46.17 -102.64,-90.84 -155,-134.02 -52.36,-43.18 -105.39,-84.89 -159.08,-125.16 -53.68,-40.26 -108.01,-79.08 -162.95,-116.5 -54.94,-37.41 -110.5,-73.42 -166.62,-108.06 -56.13,-34.64 -112.84,-67.91 -170.09,-99.84 -57.24,-31.93 -115.03,-62.53 -173.33,-91.83 -58.29,-29.3 -117.1,-57.3 -176.38,-84.04 -59.28,-26.73 -119.03,-52.2 -179.22,-76.45 -60.19,-24.24 -120.82,-47.26 -181.85,-69.09 -61.04,-21.82 -122.47,-42.46 -184.28,-61.94 -61.81,-19.48 -123.99,-37.8 -186.5,-55 -62.51,-17.2 -125.36,-33.28 -188.51,-48.28 -63.15,-15 -126.6,-28.91 -190.32,-41.77 -63.71,-12.87 -127.7,-24.68 -191.91,-35.49 -64.22,-10.8 -128.66,-20.59 -193.31,-29.41 -64.64,-8.81 -129.49,-16.64 -194.49,-23.54 -65.01,-6.89 -130.18,-12.85 -195.47,-17.89 -65.3,-5.05 -130.73,-9.19 -196.25,-12.47 -65.52,-3.27 -131.13,-5.67 -196.8,-7.24 -65.68,-1.57 -131.41,-2.3 -197.17,-2.24 -65.76,0.07 -131.54,0.92 -197.32,2.55 -65.77,1.62 -131.54,4.01 -197.26,7.12 -65.72,3.11 -131.4,6.95 -197,11.48 -65.6,4.53 -131.12,9.75 -196.53,15.63 -65.41,5.87 -130.71,12.4 -195.85,19.55 -65.16,7.15 -130.16,14.92 -194.98,23.27 -64.82,8.36 -129.46,17.29 -193.88,26.78 -64.43,9.48 -128.63,19.51 -192.59,30.06 -63.96,10.54 -127.66,21.59 -191.08,33.12 -63.42,11.54 -126.56,23.54 -189.38,35.99 -62.81,12.45 -125.31,25.33 -187.45,38.63 -62.15,13.29 -123.94,26.99 -185.34,41.05 -76.1,17.43 -151.59,35.43 -226.39,53.91 -74.8,18.48 -148.92,37.46 -222.28,56.85 -73.37,19.4 -145.99,39.22 -217.79,59.38 -71.8,20.17 -142.78,40.69 -212.88,61.49 -70.1,20.8 -139.32,41.88 -207.58,63.18 -68.27,21.29 -135.59,42.8 -201.9,64.45 -66.3,21.65 -131.59,43.44 -195.79,65.31 -64.21,21.87 -127.33,43.81 -189.31,65.75 -61.98,21.94 -122.81,43.89 -182.43,65.77 -59.614,21.89 -118.016,43.71 -175.137,65.39 -57.122,21.68 -112.965,43.23 -167.458,64.57 -54.496,21.34 -107.644,42.48 -159.382,63.34 -51.739,20.86 -102.063,41.45 -150.907,61.7 -48.843,20.24 -96.211,40.15 -142.035,59.64 -45.82,19.49 -90.097,38.56 -132.761,57.16 -42.6684,18.59 -83.7231,36.7 -123.09812,54.26 v -155.07 c 40.12892,-17.7 81.82032,-35.9 125.00812,-54.52 43.187,-18.62 87.871,-37.67 133.996,-57.08 46.125,-19.41 93.683,-39.18 142.625,-59.26 48.937,-20.07 99.254,-40.44 150.887,-61.05 51.628,-20.61 104.578,-41.45 158.785,-62.46 54.203,-21.02 109.664,-42.2 166.324,-63.5 56.656,-21.29 114.508,-42.7 173.493,-64.14 58.99,-21.45 119.11,-42.93 180.31,-64.4 61.19,-21.47 123.47,-42.92 186.75,-64.29 63.29,-21.37 127.59,-42.65 192.84,-63.78 65.25,-21.14 131.46,-42.12 198.56,-62.9 67.1,-20.78 135.09,-41.34 203.91,-61.64 68.83,-20.28 138.48,-40.3 208.91,-59.98 70.43,-19.67 141.64,-39.01 213.55,-57.94 71.91,-18.94 144.53,-37.47 217.81,-55.54 73.27,-18.07 147.2,-35.66 221.71,-52.73 62.06,-14.22 124.53,-28.07 187.39,-41.52 62.86,-13.45 126.1,-26.49 189.69,-39.1 63.6,-12.6 127.54,-24.77 191.8,-36.46 64.25,-11.69 128.82,-22.9 193.67,-33.6 64.85,-10.7 129.98,-20.88 195.35,-30.51 65.37,-9.63 130.99,-18.71 196.81,-27.2 65.82,-8.49 131.85,-16.38 198.05,-23.65 66.2,-7.27 132.57,-13.91 199.08,-19.89 66.51,-5.98 133.16,-11.29 199.9,-15.89 66.75,-4.61 133.6,-8.52 200.51,-11.68 66.91,-3.16 133.89,-5.59 200.9,-7.23 67.01,-1.65 134.05,-2.51 201.08,-2.56 67.03,-0.07 134.06,0.72 201.04,2.34 66.98,1.62 133.93,4.09 200.8,7.45 66.86,3.37 133.65,7.62 200.33,12.81 66.68,5.19 133.25,11.3 199.66,18.38 66.42,7.08 132.69,15.13 198.78,24.18 66.09,9.05 131.99,19.11 197.67,30.2 65.69,11.1 131.15,23.24 196.36,36.46 65.21,13.22 130.17,27.52 194.84,42.94 64.66,15.41 129.04,31.95 193.09,49.64 64.05,17.68 127.78,36.53 191.14,56.56 63.37,20.04 126.37,41.27 188.97,63.72 62.61,22.46 124.83,46.15 186.6,71.11 61.78,24.95 123.12,51.18 184,78.71 60.88,27.52 121.29,56.36 181.2,86.54 59.91,30.18 119.31,61.7 178.18,94.6 58.86,32.9 117.19,67.18 174.94,102.88 57.76,35.7 114.93,72.82 171.5,111.4 56.57,38.58 112.53,78.61 167.84,120.13 55.32,41.52 109.98,84.54 163.97,129.1 53.99,44.55 107.29,90.62 159.88,138.28 111.02,100.58 222.57,198.78 334.65,294.56 112.08,95.79 224.67,189.15 337.76,280.07 113.08,90.91 226.65,179.37 340.68,265.34 114,85.97 228.5,169.46 343.4,250.42 114.9,80.96 230.3,159.4 346,235.28 115.7,75.88 231.8,149.2 348.3,219.93 116.5,70.73 233.4,138.87 350.6,204.37 117.2,65.51 234.7,128.39 352.5,188.61 117.8,60.22 236,117.78 354.4,172.63 118.4,54.86 237.1,107.02 356,156.44 118.9,49.43 238.1,96.12 357.5,140.04 119.3,43.93 238.9,85.08 358.7,123.44 119.8,38.35 239.7,73.9 359.8,106.61 120.1,32.71 240.4,62.58 360.8,89.58 120.4,27 240.9,51.13 361.5,72.35 120.5,21.22 241.2,39.53 362,54.9 60.3,7.68 120.7,14.63 181.1,20.84 60.4,6.22 120.8,11.69 181.3,16.42 60.4,4.74 120.8,8.72 181.3,11.97 60.4,3.24 120.8,5.74 181.3,7.48 60.4,1.74 120.9,2.74 181.4,2.97 60.4,0.23 120.9,-0.28 181.3,-1.57 60.5,-1.29 120.9,-3.33 181.4,-6.14 60.4,-2.82 120.8,-6.4 181.3,-10.74 60.4,-4.35 120.8,-9.47 181.2,-15.37 60.4,-5.89 120.8,-12.57 181.1,-20.02 60.4,-7.46 120.8,-15.69 181.1,-24.71 60.3,-9.02 120.6,-18.82 180.9,-29.42 60.3,-10.59 120.5,-21.98 180.8,-34.16 60.2,-12.18 120.4,-25.15 180.6,-38.93 60.2,-13.78 120.3,-28.35 180.4,-43.73 60.1,-15.38 120.2,-31.56 180.2,-48.56 60.1,-16.99 120.1,-34.79 180,-53.41 60,-18.61 119.9,-38.05 179.8,-58.3 59.8,-20.25 119.7,-41.32 179.4,-63.21 59.8,-21.89 119.5,-44.61 179.2,-68.15 59.7,-23.55 119.3,-47.92 178.9,-73.13 59.6,-25.2 119.1,-51.24 178.5,-78.12 59.5,-26.88 118.9,-54.6 178.2,-83.15 59.4,-28.56 118.6,-57.96 177.9,-88.21 59.2,-30.25 118.3,-61.34 177.4,-93.29 59.1,-31.95 118.1,-64.75 177,-98.41 58.9,-33.66 117.8,-68.18 176.6,-103.55 58.8,-35.38 117.5,-71.62 176.1,-108.72 58.6,-37.11 117.2,-75.08 175.7,-113.93 58.4,-38.84 116.8,-78.55 175.1,-119.15 58.3,-40.59 116.5,-82.06 174.6,-124.4 58.2,-42.35 116.2,-85.58 174.2,-129.7 58.7,-44.73 118.5,-89.26 179.4,-133.58 60.8,-44.33 122.7,-88.45 185.5,-132.36 62.9,-43.91 126.7,-87.61 191.4,-131.1 64.8,-43.49 130.5,-86.76 197,-129.82 66.6,-43.06 134,-85.9 202.3,-128.52 68.3,-42.61 137.4,-85.01 207.3,-127.17 69.9,-42.17 140.5,-84.11 211.9,-125.82 71.5,-41.7 143.6,-83.18 216.4,-124.42 72.9,-41.24 146.4,-82.24 220.6,-123 74.2,-40.76 149,-81.29 224.4,-121.56 75.4,-40.28 151.4,-80.31 227.9,-120.09 76.6,-39.78 153.7,-79.31 231.3,-118.59 77.6,-39.27 155.7,-78.3 234.2,-117.06 78.5,-38.76 157.5,-77.26 236.9,-115.5 79.4,-38.25 159.2,-76.22 239.4,-113.93 80.1,-37.71 160.7,-75.15 241.5,-112.32 80.8,-37.16 161.9,-74.06 243.3,-110.68 81.4,-36.61 163,-72.96 244.9,-109.01 81.9,-36.06 163.9,-71.84 246.2,-107.33 82.2,-35.49 164.6,-70.69 247.1,-105.61 82.5,-34.91 165.2,-69.53 247.9,-103.86 82.7,-34.33 165.5,-68.36 248.3,-102.09 82.8,-33.74 165.6,-67.17 248.4,-100.29 82.7,-33.13 165.5,-65.95 248.2,-98.47 82.7,-32.51 165.3,-64.72 247.8,-96.61 82.5,-31.89 164.9,-63.47 247.1,-94.73 82.2,-31.26 164.2,-62.2 246,-92.819 81.8,-30.618 163.4,-60.914 244.7,-90.883 81.4,-29.969 162.4,-59.613 243.2,-88.922 80.8,-29.313 161.2,-58.289 241.3,-86.93 80.1,-28.644 159.8,-56.949 239.1,-84.914 79.3,-27.965 158.2,-55.59 236.6,-82.867 71.9,-24.984 143.3,-49.676 214.4,-74.062 71,-24.391 141.6,-48.485 211.8,-72.278 70.1,-23.789 139.8,-47.281 209,-70.465 69.2,-23.187 137.8,-46.07 206,-68.648 68.2,-22.578 135.8,-44.848 202.9,-66.809 67,-21.961 133.5,-43.609 199.4,-64.949 65.9,-21.34 131.2,-42.3671 195.9,-63.082 64.7,-20.7109 128.7,-41.1093 192.1,-61.187469 h 474.2 c -77.3,23.917969 -155.9,48.382769 -235.7,73.386769 -79.8,25.0078 -160.7,50.5507 -242.8,76.6247 -82.1,26.078 -165.3,52.688 -249.5,79.821 -84.2,27.132 -169.4,54.793 -255.7,82.968 -86.2,28.176 -173.3,56.871 -261.4,86.078 -88,29.207 -176.9,58.922 -266.7,89.145 -89.7,30.223 -180.2,60.949 -271.5,92.172 -91.2,31.223 -183.2,62.945 -275.8,95.156 -78.3,27.211 -157,54.774 -236.1,82.676 -79.2,27.906 -158.7,56.152 -238.6,84.738 -79.8,28.586 -160.1,57.508 -240.6,86.766 -80.6,29.254 -161.5,58.844 -242.6,88.764 -81.1,29.91 -162.5,60.15 -244.1,90.72 -81.6,30.57 -163.4,61.46 -245.4,92.66 -82,31.2 -164.1,62.73 -246.4,94.56 -82.2,31.83 -164.6,63.98 -247.1,96.43 -82.4,32.45 -164.9,65.21 -247.5,98.26 -82.5,33.06 -165.1,66.42 -247.6,100.07 -82.5,33.66 -165,67.61 -247.5,101.85 -82.4,34.24 -164.8,68.77 -247,103.59 -82.2,34.81 -164.3,69.91 -246.2,105.3 -82,35.37 -163.7,71.03 -245.3,106.97 -81.5,35.94 -162.8,72.15 -243.9,108.62 -81,36.48 -161.8,73.23 -242.2,110.24 -80.5,37.01 -160.7,74.29 -240.4,111.82 -79.8,37.54 -159.2,75.33 -238.2,113.38 -79,38.04 -157.6,76.34 -235.7,114.89 -78.1,38.54 -155.8,77.34 -232.9,116.38 -77.2,39.03 -153.8,78.32 -229.9,117.84 -76,39.51 -151.6,79.27 -226.5,119.26 -74.9,39.99 -149.2,80.2 -222.8,120.65 -73.7,40.45 -146.6,81.12 -218.9,122.02 -72.3,40.89 -143.9,82.01 -214.7,123.34 -70.8,41.33 -140.9,82.88 -210.2,124.64 -69.3,41.76 -137.7,83.73 -205.4,125.91 -67.6,42.18 -134.4,84.55 -200.2,127.14 -65.9,42.58 -130.9,85.36 -194.9,128.34 -64.1,42.98 -127.1,86.15 -189.2,129.52 -62.1,43.36 -123.2,86.91 -183.3,130.65 -60,43.73 -119.1,87.65 -177,131.76 -47.7,36.33 -95.5,72.07 -143.3,107.23 -47.9,35.15 -95.8,69.72 -143.8,103.71 -48,33.99 -96.1,67.39 -144.2,100.21 -48.2,32.82 -96.4,65.06 -144.6,96.72 -48.3,31.66 -96.6,62.74 -145,93.24 -48.4,30.51 -96.8,60.43 -145.4,89.79 -48.5,29.35 -97,58.13 -145.7,86.34 -48.6,28.21 -97.3,55.84 -146,82.9 -48.7,27.07 -97.5,53.56 -146.4,79.49 -48.8,25.93 -97.7,51.29 -146.6,76.08 -49,24.8 -98,49.03 -147,72.7 -49.1,23.67 -98.2,46.78 -147.3,69.32 -49.1,22.55 -98.3,44.54 -147.5,65.96 -49.3,21.43 -98.5,42.3 -147.8,62.61 -49.4,20.32 -98.7,40.08 -148.1,59.28 -49.4,19.21 -98.8,37.86 -148.3,55.97 -49.5,18.1 -99,35.65 -148.5,52.65 -49.5,17.01 -99.1,33.46 -148.7,49.37 -49.6,15.91 -99.2,31.27 -148.9,46.09 -49.7,14.82 -99.4,29.09 -149.1,42.83 -49.7,13.73 -99.5,26.93 -149.3,39.58 -49.7,12.66 -99.5,24.77 -149.4,36.35 -49.8,11.58 -99.6,22.62 -149.5,33.13 -49.9,10.51 -99.8,20.48 -149.7,29.93 -49.9,9.44 -99.8,18.35 -149.8,26.73 -49.9,8.38 -99.9,16.23 -149.9,23.56 -49.9,7.32 -99.9,14.12 -149.9,20.39 -50.1,6.28 -100.1,12.03 -150.1,17.25 -50,5.23 -100.1,9.93 -150.1,14.12 -50.1,4.18 -100.1,7.85 -150.2,10.99 -50,3.15 -100.1,5.78 -150.2,7.89 -50,2.11 -100.1,3.71 -150.2,4.8 -46.2,1 -92.4,1.57 -138.6,1.7"
         style="fill:#ffffff;fill-opacity:1;fill-rule:nonzero;stroke:none"
         id="path174" />
      <path
         d="m 32632.4,22497.6 c -18.6,-22.7 -39.1,-47.4 -61.3,-74 -22.3,-26.5 -46.3,-54.9 -72,-85 -25.7,-30.1 -53.2,-61.9 -82.3,-95.3 -29.2,-33.4 -60,-68.3 -92.5,-104.7 -32.5,-36.4 -66.6,-74.2 -102.4,-113.4 -35.8,-39.1 -73.1,-79.6 -112.1,-121.2 -38.9,-41.7 -79.5,-84.5 -121.6,-128.3 -42.1,-43.9 -85.7,-88.8 -130.8,-134.6 -45.1,-45.8 -91.8,-92.5 -139.9,-140 -48.1,-47.5 -97.7,-95.7 -148.7,-144.6 -51,-48.9 -103.5,-98.5 -157.3,-148.6 -53.8,-50 -109.1,-100.6 -165.7,-151.6 -56.6,-50.9 -114.6,-102.2 -173.8,-153.8 -59.3,-51.6 -119.9,-103.4 -181.8,-155.3 -61.9,-52 -125.1,-104 -189.5,-156 -64.5,-52.1 -130.2,-104.1 -197.1,-155.9 -66.9,-51.9 -135,-103.5 -204.3,-155 -69.2,-51.4 -139.7,-102.5 -211.3,-153.2 -71.6,-50.7 -144.4,-100.9 -218.2,-150.7 -73.9,-49.7 -148.8,-98.9 -224.8,-147.3 -76.1,-48.5 -153.2,-96.3 -231.3,-143.3 -78.1,-47 -157.2,-93.1 -237.4,-138.3 -80.1,-45.2 -161.3,-89.5 -243.4,-132.6 -82,-43.2 -165.1,-85.3 -249.1,-126.1 -83.9,-40.9 -168.8,-80.5 -254.6,-118.8 -85.8,-38.3 -172.4,-75.3 -259.9,-110.7 -87.5,-35.5 -175.9,-69.4 -265,-101.8 -89.2,-32.3 -179.2,-63.1 -269.9,-92 -90.8,-29 -182.3,-56.3 -274.5,-81.6 -92.3,-25.4 -185.3,-48.8 -279,-70.3 -93.7,-21.4 -188.1,-40.8 -283.1,-58.1 -95.1,-17.3 -190.8,-32.4 -287.2,-45.3 -49.6,-6.6 -99.4,-12.1 -149.3,-16.4 -49.9,-4.4 -99.9,-7.6 -149.9,-9.7 -50.1,-2.2 -100.2,-3.3 -150.5,-3.3 -50.2,-0.1 -100.6,0.9 -151,2.8 -50.5,1.9 -101,4.9 -151.6,8.7 -50.7,3.9 -101.4,8.7 -152.2,14.4 -50.8,5.6 -101.7,12.2 -152.7,19.6 -51,7.5 -102.1,15.7 -153.2,24.8 -51.2,9 -102.5,18.9 -153.8,29.5 -51.4,10.6 -102.9,22 -154.4,34.1 -51.5,12 -103.2,24.8 -154.9,38.3 -51.7,13.4 -103.5,27.5 -155.4,42.2 -51.9,14.7 -103.9,30.1 -156,46 -52,15.9 -104.2,32.4 -156.5,49.4 -52.2,17 -104.6,34.5 -157,52.5 -52.4,18.1 -104.9,36.6 -157.5,55.5 -52.6,18.9 -105.3,38.3 -158.1,58 -52.8,19.8 -105.7,39.9 -158.6,60.4 -53,20.5 -106,41.3 -159.1,62.5 -53.1,21.1 -106.4,42.5 -159.6,64.2 -53.3,21.7 -106.7,43.6 -160.2,65.8 -53.5,22.1 -107,44.5 -160.6,67 -53.7,22.5 -107.4,45.2 -161.2,68 -53.8,22.8 -107.7,45.7 -161.7,68.7 -53.9,23 -108,46 -162.1,69.1 -54.2,23.1 -108.4,46.2 -162.7,69.3 -54.3,23.1 -108.7,46.2 -163.1,69.2 -54.5,23 -109,45.9 -163.7,68.7 -54.6,22.9 -109.3,45.6 -164.1,68.2 -54.8,22.5 -109.7,44.9 -164.6,67.2 -55,22.2 -110,44.2 -165.1,65.9 -55.2,21.8 -110.3,43.3 -165.6,64.5 -55.3,21.3 -110.7,42.2 -166.1,62.8 -55.4,20.6 -111,40.8 -166.6,60.6 -55.6,19.9 -111.3,39.3 -167,58.3 -55.8,19 -111.7,37.6 -167.6,55.7 -56,18.1 -112,35.6 -168.1,52.7 -56.1,17.1 -112.3,33.6 -168.6,49.5 -56.3,15.9 -112.6,31.3 -169.1,46 -56.4,14.7 -112.9,28.8 -169.5,42.2 -56.7,13.4 -113.4,26.1 -170.1,38.1 -56.8,12 -113.7,23.3 -170.6,33.8 -57,10.5 -114,20.2 -171.1,29.1 -57.1,8.9 -114.3,17 -171.6,24.2 -57.3,7.2 -114.6,13.5 -172.1,18.9 -57.4,5.5 -115,10 -172.6,13.5 -57.6,3.5 -115.3,6.1 -173.1,7.6 -57.8,1.6 -115.6,2.1 -173.6,1.6 -57.9,-0.5 -116,-2.1 -174.1,-4.8 -58.1,-2.7 -116.3,-6.6 -174.5,-11.6 -58.3,-4.9 -116.6,-11.1 -175,-18.5 -58.4,-7.3 -116.9,-15.9 -175.4,-25.7 -58.6,-9.8 -117.2,-20.9 -175.8,-33.3 -58.7,-12.3 -117.5,-26 -176.2,-41 -58.8,-15 -117.7,-31.4 -176.6,-49.1 -58.9,-17.8 -117.9,-36.9 -177,-57.5 -59,-20.6 -118.1,-42.6 -177.2,-66.1 -59.2,-23.4 -118.4,-48.4 -177.6,-74.9 -59.2,-26.5 -118.5,-54.5 -177.9,-84.1 -59.3,-29.6 -118.7,-60.7 -178.2,-93.5 -59.4,-32.8 -118.9,-67.2 -178.4,-103.2 -59.5,-36.1 -119.1,-73.8 -178.7,-113.2 -59.6,-39.5 -119.2,-80.6 -178.9,-123.5 -59.7,-42.9 -119.4,-87.5 -179.2,-133.9 -45.9,-35.7 -91.6,-71.4 -137.2,-106.9 -45.5,-35.6 -90.8,-71.1 -136,-106.5 -45.1,-35.5 -90.1,-70.8 -134.8,-106 -44.8,-35.2 -89.4,-70.4 -133.9,-105.3 -44.4,-35 -88.7,-69.9 -132.8,-104.6 -44.1,-34.8 -88,-69.4 -131.9,-103.8 -43.8,-34.4 -87.4,-68.7 -131,-102.8 -43.5,-34 -86.9,-68 -130.2,-101.7 -43.3,-33.7 -86.4,-67.2 -129.5,-100.5 -43,-33.3 -85.9,-66.4 -128.8,-99.3 -42.8,-32.9 -85.5,-65.5 -128.1,-97.9 -42.7,-32.4 -85.2,-64.5 -127.7,-96.4 -42.4,-31.9 -84.8,-63.5 -127.1,-94.8 -42.3,-31.3 -84.6,-62.3 -126.7,-93.1 -42.2,-30.7 -84.3,-61.1 -126.4,-91.2 -42.1,-30.2 -84.1,-60 -126,-89.4 -42,-29.5 -84,-58.6 -125.9,-87.3 -41.9,-28.8 -83.8,-57.2 -125.6,-85.2 -41.9,-28.1 -83.8,-55.7 -125.6,-83 -41.8,-27.3 -83.7,-54.2 -125.5,-80.6 -41.9,-26.5 -83.7,-52.6 -125.6,-78.2 -41.8,-25.6 -83.7,-50.8 -125.6,-75.6 -41.9,-24.7 -83.8,-49.1 -125.8,-72.9 -41.9,-23.9 -83.9,-47.3 -125.9,-70.2 -42.1,-22.9 -84.2,-45.3 -126.3,-67.3 -42.2,-21.9 -84.4,-43.3 -126.6,-64.2 -42.3,-21 -84.6,-41.4 -127,-61.2 -42.4,-19.9 -84.9,-39.3 -127.5,-58 -42.6,-18.8 -85.3,-37.1 -128,-54.7 -42.8,-17.7 -85.7,-34.8 -128.6,-51.3 -43,-16.5 -86.1,-32.4 -129.3,-47.7 -43.2,-15.4 -86.5,-30.1 -130,-44.2 -43.5,-14.1 -87.1,-27.5 -130.8,-40.4 -43.7,-12.8 -87.6,-25.1 -131.7,-36.6 -44,-11.6 -88.3,-22.5 -132.6,-32.8 -44.4,-10.3 -89,-19.9 -133.7,-28.8 -44.8,-8.9 -89.7,-17.2 -134.8,-24.7 -45.1,-7.5 -90.4,-14.4 -136,-20.5 -45.5,-6.1 -91.2,-11.5 -137.2,-16.1 -45.9,-4.7 -92.1,-8.6 -138.5,-11.8 -46.4,-3.1 -93,-5.5 -139.9,-7.2 -46.9,-1.6 -94,-2.4 -141.4,-2.5 -47.3,-0.1 -95,0.7 -142.9,2.2 -47.9,1.6 -96,3.9 -144.5,7.1 -48.4,3.2 -97.1,7.2 -146.1,12.1 -49.04,4.9 -98.34,10.6 -147.94,17.2 -49.61,6.6 -99.51,14 -149.73,22.4 -50.22,8.3 -100.76,17.6 -151.62,27.7 -50.86,10.1 -102.04,21.2 -153.57,33.1 -51.52,12 -103.39,24.9 -155.6,38.7 -52.21,13.8 -104.77,28.6 -157.7,44.3 -52.92,15.8 -106.21,32.5 -159.86,50.1 -53.66,17.7 -107.7,36.3 -162.12,56 -54.41,19.6 -109.22,40.3 -164.42,61.9 -55.2,21.7 -110.8,44.4 -166.8,68.1 -56.01,23.7 -112.43,48.4 -169.26,74.2 -56.84,25.8 -114.1,52.7 -171.79,80.6 -57.7,27.9 -115.82,56.9 -174.39,87 -58.57,30.1 -117.58,61.2 -177.05,93.5 -59.47,32.3 -119.4,65.7 -179.79,100.2 -60.4,34.5 -121.26,70.1 -182.61,106.9 -61.34,36.8 -123.16,74.7 -185.48,113.8 -62.32,39.1 -125.13,79.4 -188.44,120.8 -63.31,41.4 -127.12,84.1 -191.45,127.9 -65.1,44.3 -129.92,87.5 -194.45,129.5 -64.54,41.9 -128.78,82.8 -192.73,122.4 -63.96,39.7 -127.62,78.2 -190.98,115.7 -63.35,37.4 -126.41,73.7 -189.16,108.9 -62.75,35.2 -125.2,69.4 -187.32,102.4 -62.13,33.1 -123.94,65.1 -185.43,96.1 -61.49,31 -122.66,60.9 -183.5,89.9 -60.84,28.9 -121.35,56.8 -181.52,83.8 -60.17,26.9 -120,52.9 -179.5,77.9 -59.49,25 -118.63,49 -177.43,72.1 -58.8,23.2 -117.24,45.3 -175.33,66.6 -58.08,21.3 -115.81,41.7 -173.17,61.2 -57.36,19.5 -114.36,38.1 -170.98,55.9 -56.63,17.8 -112.88,34.7 -168.75,50.8 -55.87,16.1 -111.36,31.4 -166.46,45.9 -55.11,14.5 -109.82,28.2 -164.14,41.1 -54.32,12.9 -108.25,25 -161.78,36.4 -53.52,11.4 -106.64,22.1 -159.36,32 -52.71,9.9 -105.01,19.1 -156.9,27.6 -51.89,8.6 -103.36,16.4 -154.41,23.5 -51.05,7.2 -101.67,13.7 -151.87,19.5 -50.19,5.9 -99.96,11.1 -149.28,15.7 -49.33,4.6 -98.22,8.6 -146.66,12 -48.44,3.4 -96.43,6.2 -143.98,8.4 -47.54,2.3 -94.64,4 -141.27,5.1 -46.63,1.2 -92.81,1.8 -138.51,1.9 -45.71,0.1 -90.94,-0.3 -135.71,-1.2 -44.76,-0.9 -89.05,-2.2 -132.86,-4 -43.81,-1.9 -87.14,-4.1 -129.98,-6.8 -42.84,-2.8 -85.19,-5.9 -127.04,-9.4 -41.86,-3.6 -83.22,-7.5 -124.07,-11.8 -40.86,-4.4 -81.21,-9.1 -121.05,-14.1 -46.82,-5.9 -92.94,-12.4 -138.36,-19.2 -45.41,-6.9 -90.11,-14.2 -134.09,-21.9 -43.99,-7.7 -87.24,-15.8 -129.77,-24.2 -42.53,-8.5 -84.32,-17.3 -125.37,-26.4 -41.04,-9.1 -81.34,-18.6 -120.89,-28.3 -39.543,-9.7 -78.328,-19.7 -116.347,-29.8 -38.016,-10.2 -75.266,-20.7 -111.735,-31.2 -36.468,-10.6 -72.156,-21.4 -107.05,-32.3 -34.895,-10.9 -69,-22 -102.297,-33.1 -33.297,-11.2 -65.793,-22.4 -97.469,-33.7 -31.68,-11.3 -62.539,-22.6 -92.574,-34 -30.032,-11.3 -59.239,-22.6 -87.606,-33.9 -28.363,-11.4 -55.89,-22.6 -82.562,-33.8 -26.676,-11.2 -52.5,-22.3 -77.457,-33.3 -24.961,-11 -49.055,-21.8 -72.2777,-32.5 -23.2187,-10.7 -45.5664,-21.2 -67.02342,-31.5 v -156.9 c 20.05862,10 41.12112,20.4 63.17192,31 22.0507,10.6 45.0902,21.4 69.1052,32.4 24.016,11 49.008,22.3 74.965,33.6 25.957,11.3 52.875,22.8 80.746,34.4 27.871,11.5 56.695,23.2 86.457,34.9 29.762,11.6 60.461,23.4 92.086,35 31.629,11.7 64.18,23.4 97.649,35 33.464,11.6 67.847,23.2 103.128,34.6 35.282,11.4 71.465,22.7 108.536,33.8 37.07,11.1 75.031,22.1 113.871,32.8 38.836,10.8 78.547,21.3 119.123,31.5 40.58,10.2 82.02,20.2 124.31,29.8 42.29,9.6 85.43,18.9 129.41,27.9 43.99,8.9 88.81,17.4 134.45,25.5 45.65,8.2 92.12,15.8 139.41,23.1 47.29,7.2 95.38,13.9 144.29,20.1 38.88,4.9 78.26,9.5 118.14,13.7 39.89,4.3 80.26,8.1 121.12,11.6 40.86,3.5 82.21,6.5 124.04,9.2 41.83,2.7 84.14,4.9 126.93,6.7 42.78,1.8 86.04,3.2 129.77,4.1 43.72,0.8 87.92,1.3 132.58,1.2 44.65,-0.1 89.77,-0.7 135.34,-1.8 45.58,-1.1 91.61,-2.7 138.08,-4.9 46.48,-2.1 93.41,-4.8 140.78,-8.1 47.36,-3.3 95.17,-7.2 143.42,-11.7 48.24,-4.5 96.92,-9.5 146.04,-15.2 49.11,-5.7 98.65,-12.1 148.61,-19.1 49.96,-6.9 100.34,-14.6 151.15,-22.9 50.8,-8.3 102.01,-17.4 153.64,-27.1 51.63,-9.7 103.66,-20.1 156.11,-31.3 52.43,-11.1 105.28,-23 158.51,-35.7 53.25,-12.6 106.88,-26 160.91,-40.2 54.03,-14.2 108.44,-29.2 163.24,-45 54.8,-15.8 109.99,-32.5 165.55,-49.9 55.57,-17.5 111.5,-35.8 167.81,-54.9 56.31,-19.2 112.99,-39.2 170.04,-60.2 57.04,-20.9 114.45,-42.7 172.22,-65.5 57.77,-22.7 115.89,-46.4 174.38,-71 58.47,-24.6 117.3,-50.1 176.47,-76.6 59.18,-26.6 118.69,-54.1 178.55,-82.6 59.86,-28.5 120.05,-58 180.58,-88.5 60.53,-30.5 121.39,-62.1 182.57,-94.7 61.18,-32.6 122.7,-66.2 184.52,-100.9 61.83,-34.8 123.98,-70.6 186.44,-107.5 62.46,-36.9 125.24,-74.9 188.31,-114.1 63.09,-39.1 126.47,-79.4 190.16,-120.9 63.68,-41.4 127.66,-84 191.94,-127.8 65.05,-44.3 129.61,-87.4 193.71,-129.3 64.09,-41.9 127.72,-82.7 190.89,-122.2 63.17,-39.6 125.88,-78 188.14,-115.3 62.27,-37.2 124.08,-73.3 185.46,-108.3 61.38,-35 122.31,-68.8 182.83,-101.6 60.51,-32.7 120.59,-64.3 180.25,-94.9 59.66,-30.5 118.91,-59.9 177.75,-88.3 58.84,-28.3 117.27,-55.6 175.3,-81.8 58.03,-26.3 115.66,-51.4 172.9,-75.5 57.25,-24.2 114.11,-47.2 170.58,-69.3 56.49,-22 112.58,-43.1 168.32,-63.1 55.73,-20 111.09,-39 166.1,-57 55.01,-18 109.65,-35.1 163.96,-51.1 54.3,-16.1 108.25,-31.2 161.86,-45.3 53.62,-14.2 106.89,-27.3 159.84,-39.6 52.95,-12.2 105.57,-23.5 157.87,-33.9 52.31,-10.4 104.29,-19.9 155.97,-28.5 51.67,-8.5 103.05,-16.2 154.12,-23 51.07,-6.8 101.84,-12.7 152.32,-17.7 50.45,-5.1 100.65,-9.2 150.65,-12.6 49.9,-3.3 99.5,-5.8 148.9,-7.4 49.4,-1.7 98.5,-2.5 147.3,-2.5 48.9,0 97.5,0.8 145.8,2.4 48.4,1.7 96.4,4.1 144.3,7.2 47.9,3.2 95.5,7.2 142.9,11.9 47.4,4.7 94.5,10.2 141.5,16.4 46.9,6.2 93.7,13.2 140.2,20.9 46.5,7.6 92.8,16.1 138.9,25.2 46.1,9.1 92.1,18.9 137.8,29.4 45.7,10.5 91.3,21.7 136.6,33.6 45.4,11.9 90.6,24.4 135.6,37.6 45,13.2 89.9,27.1 134.6,41.6 44.7,14.5 89.2,29.6 133.6,45.3 44.4,15.7 88.6,32 132.7,48.9 44.1,16.9 88,34.4 131.9,52.5 43.8,18.1 87.5,36.7 131,55.9 43.6,19.2 87.1,38.9 130.4,59.1 43.4,20.3 86.6,41.1 129.8,62.4 43.1,21.3 86.2,43.1 129.1,65.4 43,22.4 85.9,45.2 128.7,68.4 42.8,23.3 85.6,47.1 128.3,71.3 42.6,24.2 85.3,48.9 127.8,74 42.6,25.1 85.1,50.7 127.6,76.7 42.5,26 84.9,52.4 127.3,79.2 42.4,26.8 84.8,54 127.2,81.6 42.4,27.5 84.7,55.5 127.1,83.9 42.3,28.3 84.7,57 127,86.1 42.4,29 84.7,58.4 127.1,88.2 42.4,29.7 84.8,59.8 127.2,90.1 42.4,30.4 84.9,61.1 127.3,92.1 42.5,31 85.1,62.3 127.6,93.8 42.6,31.6 85.3,63.4 128,95.5 42.6,32 85.4,64.4 128.2,97 42.9,32.5 85.8,65.4 128.8,98.4 43,33 86,66.3 129.2,99.7 43.2,33.5 86.4,67.2 129.8,101 43.4,33.8 86.9,67.9 130.5,102.1 43.6,34.2 87.3,68.5 131.2,103 43.8,34.5 87.8,69.2 131.9,104 44.2,34.7 88.4,69.6 132.8,104.7 44.5,35 89,70.1 133.8,105.3 44.7,35.3 89.6,70.6 134.7,106 45,35.4 90.3,70.8 135.7,106.3 45.5,35.5 91.1,71.1 136.9,106.7 58.4,45.4 116.7,89 174.9,130.8 58.2,41.9 116.3,82 174.3,120.5 58.1,38.4 116,75.1 173.9,110.2 57.9,35.2 115.6,68.6 173.4,100.5 57.7,31.9 115.3,62.2 172.9,90.9 57.5,28.8 115,56 172.4,81.7 57.4,25.7 114.8,49.9 172,72.7 57.3,22.7 114.5,44.1 171.6,64 57.2,19.9 114.2,38.4 171.2,55.5 57,17.2 114,33 170.8,47.5 56.9,14.5 113.7,27.7 170.5,39.6 56.7,11.9 113.4,22.6 170,32 56.7,9.5 113.2,17.7 169.8,24.8 56.5,7.1 113,13 169.4,17.8 56.4,4.8 112.7,8.4 169.1,11 56.3,2.6 112.5,4.2 168.8,4.7 56.2,0.5 112.4,-0.1 168.5,-1.6 56.1,-1.5 112.2,-4 168.3,-7.4 56,-3.5 112,-7.9 168,-13.2 56,-5.3 111.9,-11.4 167.8,-18.5 55.9,-7 111.7,-14.9 167.5,-23.6 55.8,-8.7 111.5,-18.2 167.2,-28.5 55.8,-10.3 111.4,-21.3 167,-33.1 55.7,-11.8 111.2,-24.2 166.8,-37.4 55.5,-13.1 111,-27 166.4,-41.4 55.5,-14.5 110.9,-29.5 166.3,-45.2 55.3,-15.7 110.6,-31.9 165.9,-48.7 55.3,-16.8 110.5,-34.1 165.7,-51.9 55.1,-17.9 110.3,-36.2 165.4,-54.9 55,-18.8 110.1,-38 165.1,-57.6 55,-19.6 109.9,-39.6 164.8,-60 54.9,-20.4 109.8,-41.1 164.6,-62.2 54.8,-21 109.6,-42.4 164.3,-64 54.7,-21.7 109.4,-43.6 164,-65.7 54.6,-22.2 109.2,-44.5 163.7,-67.1 54.5,-22.5 109,-45.2 163.4,-68.1 54.4,-22.8 108.7,-45.8 163.1,-68.9 54.3,-23 108.6,-46.2 162.8,-69.4 54.2,-23.1 108.4,-46.4 162.5,-69.6 54.1,-23.2 108.2,-46.4 162.2,-69.5 54,-23.1 108,-46.2 161.9,-69.2 54,-23 107.9,-45.8 161.7,-68.5 53.8,-22.7 107.6,-45.3 161.3,-67.7 53.8,-22.3 107.5,-44.5 161.1,-66.4 53.7,-21.9 107.3,-43.6 160.8,-64.9 53.5,-21.4 107.1,-42.5 160.5,-63.2 53.5,-20.7 106.9,-41.1 160.2,-61.1 53.4,-20 106.7,-39.6 160,-58.8 53.2,-19.2 106.5,-37.9 159.6,-56.2 53.2,-18.2 106.3,-36 159.4,-53.2 53.1,-17.3 106.1,-34 159.1,-50.1 53,-16.1 106,-31.7 158.9,-46.6 52.9,-14.9 105.7,-29.2 158.5,-42.8 52.8,-13.7 105.6,-26.6 158.3,-38.8 52.7,-12.3 105.4,-23.8 158,-34.5 52.7,-10.8 105.2,-20.7 157.8,-29.9 52.5,-9.1 105,-17.5 157.5,-25 52.4,-7.4 104.8,-14.1 157.2,-19.8 52.3,-5.7 104.7,-10.5 156.9,-14.3 52.3,-3.9 104.5,-6.7 156.7,-8.6 52.2,-1.9 104.3,-2.8 156.4,-2.6 52.1,0.2 104.2,1.4 156.2,3.7 52,2.4 104,5.8 155.9,10.4 51.9,4.5 103.8,10.3 155.6,17.2 103,13.7 205.3,29.9 306.8,48.6 101.5,18.6 202.2,39.6 302,62.8 99.9,23.2 199,48.6 297.2,76 98.1,27.5 195.5,57 291.9,88.5 96.4,31.4 192,64.7 286.5,99.8 94.6,35.1 188.3,71.9 280.9,110.4 92.7,38.4 184.4,78.5 275,119.9 90.7,41.5 180.3,84.5 268.8,128.7 88.6,44.2 176.1,89.7 262.5,136.3 86.4,46.7 171.7,94.5 255.8,143.2 84.2,48.8 167.2,98.6 249,149.2 81.8,50.5 162.4,102 241.8,154 79.4,52.1 157.6,104.9 234.5,158.2 76.9,53.3 152.5,107.1 226.9,161.3 74.3,54.2 147.3,108.7 219,163.5 71.7,54.8 142,109.8 210.9,164.8 69,55.1 136.5,110.2 202.6,165.2 66.2,55.1 130.9,110 194.1,164.7 63.2,54.7 124.9,109.2 185.2,163.2 60.2,54.1 119,107.7 176.1,160.8 57.2,53.1 112.9,105.7 166.9,157.5 54,51.9 106.5,103 157.3,153.3 50.8,50.3 100,99.7 147.5,148.2 47.5,48.4 93.4,95.8 137.5,142 44.1,46.3 86.5,91.4 127.2,135.1 40.7,43.8 79.6,86.2 116.7,127.2 37.1,41 72.4,80.5 105.9,118.4 33.5,37.8 65.1,74.1 94.9,108.6 29.8,34.4 57.7,67.1 83.7,97.9 26,30.7 50,59.6 72.2,86.3 22.1,26.8 42.2,51.4 60.4,73.8 18.2,22.5 34.3,42.6 48.4,60.4 h -183"
         style="fill:#ffffff;fill-opacity:1;fill-rule:nonzero;stroke:none"
         id="path176" />
      <path
         d="m 15841.5,22497.6 c -1730.9,-749 -3461.9,-1969.5 -4087.9,-3632.6 -622.1,-1653 -1262,-2514.4 -1898.28,-2968 -636.27,-453.5 -1274.79,-506.9 -1922.3,-526.7 -647.5,-19.9 -1303.45,-3.1 -1939.68,-337.8 -636.23,-334.7 -1240.48,-1017.1 -1799.07,-2406 -551.36,-1371 -1803.6,-1892.4 -2931.91,-2074.5 -463.231,-74.7 -903.11,-91.1 -1260.93812,-84.6 v -141.8 c 364.47312,-6.6 811.94112,10.4 1283.52812,86.5 1154.38,186.2 2466.32,732.9 3040.82,2161.4 551.41,1371.1 1134.71,2018.5 1733.56,2333.6 598.84,315 1225.46,301.5 1878.01,321.5 652.56,20 1331.56,76.4 2000.25,553 668.71,476.6 1321.01,1365.6 1948.71,3033.4 640.5,1701.9 2521.1,2955.3 4329,3682.6 h -373.8"
         style="fill:#ffffff;fill-opacity:1;fill-rule:nonzero;stroke:none"
         id="path178" />
      <path
         d="m 37499.6,16314 c -33.8,-7 -67.6,-14.2 -101.5,-21.7 -33.9,-7.4 -67.9,-15.2 -101.9,-23.1 -34,-8 -68,-16.2 -102.1,-24.7 -34.1,-8.5 -68.2,-17.2 -102.3,-26.2 -34.2,-9 -68.4,-18.3 -102.6,-27.8 -34.2,-9.5 -68.4,-19.3 -102.6,-29.4 -34.2,-10.1 -68.5,-20.4 -102.7,-31.1 -34.3,-10.6 -68.5,-21.5 -102.7,-32.8 -34.3,-11.2 -68.5,-22.7 -102.7,-34.5 -34.2,-11.8 -68.4,-23.9 -102.5,-36.3 -34.2,-12.3 -68.3,-25 -102.4,-38.1 -34.1,-13 -68.2,-26.3 -102.2,-39.9 -34,-13.6 -68,-27.6 -101.9,-41.8 -34,-14.3 -67.8,-28.9 -101.6,-43.8 -33.8,-14.9 -67.6,-30.2 -101.2,-45.8 -33.7,-15.5 -67.3,-31.4 -100.8,-47.7 -33.5,-16.3 -67,-32.9 -100.3,-49.8 -33.3,-16.9 -66.6,-34.2 -99.7,-51.9 -33.2,-17.6 -66.2,-35.6 -99.2,-54 -32.9,-18.3 -65.8,-37 -98.5,-56.1 -32.7,-19.1 -65.3,-38.6 -97.7,-58.4 -32.5,-19.8 -64.9,-40 -97.1,-60.6 -32.2,-20.6 -64.2,-41.5 -96.1,-62.8 -32,-21.4 -63.7,-43.1 -95.4,-65.2 -31.6,-22.1 -63,-44.7 -94.3,-67.6 -31.3,-22.9 -62.5,-46.2 -93.5,-69.9 -30.9,-23.7 -61.7,-47.8 -92.3,-72.4 -30.6,-24.5 -61,-49.4 -91.3,-74.8 -30.2,-25.4 -60.2,-51.1 -90.1,-77.3 -29.8,-26.2 -59.5,-52.9 -88.9,-79.9 -29.4,-27.1 -58.7,-54.6 -87.6,-82.5 -29.1,-27.9 -57.8,-56.3 -86.4,-85.1 -51.9,-52.3 -102,-105.3 -150.5,-158.7 -48.5,-53.5 -95.3,-107.5 -140.4,-162 -45.2,-54.5 -88.8,-109.5 -130.8,-165 -42,-55.5 -82.4,-111.5 -121.4,-167.9 -38.9,-56.5 -76.4,-113.4 -112.4,-170.7 -36,-57.3 -70.5,-115.1 -103.7,-173.3 -33.2,-58.1 -65,-116.7 -95.5,-175.6 -30.5,-59 -59.6,-118.3 -87.5,-178 -27.9,-59.7 -54.5,-119.7 -80,-180 -25.4,-60.4 -49.6,-121 -72.7,-182 -23.1,-61 -45,-122.2 -65.9,-183.7 -20.8,-61.6 -40.6,-123.4 -59.3,-185.4 -18.8,-62 -36.5,-124.3 -53.3,-186.8 -16.7,-62.5 -32.5,-125.2 -47.4,-188.1 -14.9,-62.9 -28.9,-125.9 -42,-189.2 -13.1,-63.2 -25.4,-126.6 -36.9,-190.1 -11.5,-63.6 -22.2,-127.2 -32.2,-191 -10,-63.8 -19.2,-127.7 -27.8,-191.6 -8.6,-64 -16.5,-128 -23.8,-192.1 -7.3,-64.1 -14,-128.2 -20.1,-192.4 -6.2,-64.1 -11.8,-128.3 -16.9,-192.5 -5.1,-64.2 -9.7,-128.4 -13.9,-192.5 -4.2,-64.2 -7.9,-128.3 -11.3,-192.4 -3.4,-64.1 -6.4,-128.1 -9.1,-192 -2.6,-63.9 -5,-127.8 -7.2,-191.5 -2.1,-63.7 -3.9,-127.4 -5.6,-190.85 -1.7,-63.49 -3.2,-126.84 -4.5,-190.02 -1.4,-63.19 -2.6,-126.21 -3.7,-189.04 -1.2,-62.83 -2.2,-125.47 -3.3,-187.89 -1,-62.41 -2.1,-124.62 -3.1,-186.57 -1.1,-61.96 -2.2,-123.67 -3.4,-185.1 -1.3,-61.44 -2.6,-122.6 -4.1,-183.47 -1.4,-60.86 -3.1,-121.43 -5,-181.68 -1.8,-60.25 -3.9,-120.18 -6.3,-179.75 -2.4,-59.59 -5,-118.82 -8,-177.68 -2.9,-58.85 -6.2,-117.34 -9.9,-175.42 -3.7,-58.08 -7.8,-115.77 -12.3,-173.03 -4.6,-57.25 -9.5,-114.09 -15,-170.46 -5.5,-56.38 -11.5,-112.31 -18,-167.75 -6.5,-55.45 -13.6,-110.42 -21.3,-164.88 -7.7,-54.47 -16,-108.43 -24.9,-161.86 -9,-53.42 -18.6,-106.32 -29,-158.66 -10.3,-52.34 -21.4,-104.12 -33.3,-155.32 -11.8,-51.19 -24.4,-101.81 -37.9,-151.81 -13.5,-50.01 -27.8,-99.4 -43,-148.16 -15.2,-48.76 -31.2,-96.88 -48.3,-144.34 -17,-47.46 -35,-94.26 -53.9,-140.36 -19,-46.11 -39,-91.53 -60,-136.24 -21,-44.7 -43.1,-88.73 -66.2,-132.04 -23.2,-43.32 -47.5,-85.92 -72.9,-127.81 -25.4,-41.88 -52,-83.03 -79.8,-123.43 -27.8,-40.4 -56.8,-80.05 -87.1,-118.92 -30.3,-38.88 -61.9,-76.98 -94.9,-114.29 -33,-37.3 -67.3,-73.81 -103,-109.51 -35.7,-35.69 -72.9,-70.56 -111.5,-104.59 -38.7,-34.04 -78.8,-67.23 -120.4,-99.56 -41.7,-32.33 -84.9,-63.79 -129.8,-94.37 -44.8,-30.58 -91.2,-60.28 -139.3,-89.06 -48.1,-28.79 -97.9,-56.67 -149.5,-83.62 -51.5,-26.94 -104.8,-52.96 -159.8,-78.03 -55.1,-25.06 -112,-49.17 -170.8,-72.31 -58.7,-23.14 -119.3,-45.3 -181.9,-66.46 -62.5,-21.16 -127,-41.33 -193.5,-60.47 -66.5,-19.15 -135,-37.27 -205.5,-54.36 -53.8,-13.03 -108.7,-25.56 -164.7,-37.63 -56,-12.07 -113,-23.69 -171,-34.88 -58.1,-11.18 -117.1,-21.94 -177.1,-32.32 -60,-10.38 -120.9,-20.37 -182.8,-30.02 -61.9,-9.65 -124.6,-18.95 -188.2,-27.94 -63.7,-8.99 -128.2,-17.67 -193.5,-26.08 -65.3,-8.41 -131.4,-16.55 -198.3,-24.45 -66.8,-7.9 -134.5,-15.58 -202.8,-23.05 -68.4,-7.48 -137.5,-14.76 -207.2,-21.89 -69.8,-7.12 -140.2,-14.09 -211.3,-20.94 -71,-6.85 -142.7,-13.58 -214.9,-20.23 -72.3,-6.65 -145.1,-13.22 -218.4,-19.74 -73.4,-6.53 -147.3,-13.01 -221.6,-19.49 -74.4,-6.48 -149.2,-12.95 -224.5,-19.46 -75.2,-6.5 -150.9,-13.05 -227,-19.66 -76.1,-6.6 -152.6,-13.29 -229.4,-20.08 -76.8,-6.79 -153.9,-13.69 -231.4,-20.74 -77.4,-7.05 -155.1,-14.25 -233.1,-21.63 -77.9,-7.38 -156.1,-14.95 -234.5,-22.74 -78.4,-7.79 -157,-15.8 -235.7,-24.07 -78.8,-8.28 -157.7,-16.82 -236.6,-25.66 -79,-8.83 -158.1,-17.97 -237.2,-27.44 -79.1,-9.48 -158.3,-19.29 -237.5,-29.48 -79.2,-10.18 -158.4,-20.75 -237.5,-31.73 -79.1,-10.97 -158.2,-22.36 -237.2,-34.2 -79,-11.85 -157.9,-24.14 -236.7,-36.92 -78.8,-12.79 -157.4,-26.06 -235.8,-39.86 -78.5,-13.81 -156.7,-28.14 -234.7,-43.04 -78,-14.89 -155.8,-30.35 -233.3,-46.42 -77.5,-16.06 -154.7,-32.74 -231.6,-50.04 -76.9,-17.32 -153.4,-35.27 -229.6,-53.91 -76.2,-18.63 -152,-37.95 -227.3,-57.98 -75.4,-20.03 -150.3,-40.79 -224.8,-62.31 -74.5,-21.52 -148.5,-43.81 -222.1,-66.9 -73.5,-23.1 -146.5,-46.99 -218.9,-71.73 -72.5,-24.74 -144.4,-50.33 -215.7,-76.79 -71.2,-26.47 -141.9,-53.83 -211.9,-82.11 -70,-28.27 -139.4,-57.47 -208.1,-87.64 -68.6,-30.17 -136.6,-61.29 -203.7,-93.42 -67.2,-32.14 -133.7,-65.27 -199.3,-99.45 -65.6,-34.18 -130.5,-69.4 -194.5,-105.71 -63.9,-36.3 -127.1,-73.69 -189.3,-112.2 -62.2,-38.51 -123.6,-78.14 -183.9,-118.94 -60.4,-40.8 -119.8,-82.75 -178.3,-125.91 -58.4,-43.16 -115.8,-87.53 -172.2,-133.13 -56.4,-45.61 -111.7,-92.46 -166,-140.58 -54.2,-48.13 -107.4,-97.54 -159.4,-148.28 -52,-50.73 -102.8,-102.78 -152.5,-156.2 -31.2,-33.62 -62,-67.78 -92.3,-102.49 -30.3,-34.7 -60.1,-69.95 -89.4,-105.76 -29.3,-35.81 -58,-72.17 -86.3,-109.09 -28.3,-36.92 -56,-74.41 -83.2,-112.47 -27.2,-38.06 -53.9,-76.69 -80.1,-115.9 -26.1,-39.21 -51.7,-79 -76.8,-119.39 -25,-40.37 -49.5,-81.34 -73.5,-122.91 -23.9,-41.57 -47.3,-83.73 -70.1,-126.5 -22.8,-42.77 -45,-86.14 -66.6,-130.13 -21.7,-43.994 -42.7,-88.596 -63.2,-133.822 -20.4,-45.227 -40.3,-91.078 -59.5,-137.559 -19.2,-46.48 -37.9,-93.594 -55.9,-141.348 -18,-47.753 -35.3,-96.144 -52.1,-145.187 -16.7,-49.039 -32.8,-98.731 -48.3,-149.078 -15.5,-50.344 -30.3,-101.348 -44.4,-153.02 -14.2,-51.668 -27.7,-104.0037 -40.5,-157.011469 h 144.9 c 12.6,50.636769 25.8,100.613469 39.6,149.941469 13.9,49.328 28.3,98.008 43.4,146.047 15,48.039 30.7,95.437 46.9,142.211 16.3,46.769 33.1,92.914 50.5,138.433 17.5,45.524 35.5,90.426 54.1,134.719 18.6,44.293 37.7,87.977 57.4,131.063 19.8,43.086 40.1,85.57 60.9,127.468 20.8,41.893 42.2,83.203 64.2,123.933 21.9,40.72 44.4,80.87 67.3,120.45 23,39.58 46.6,78.59 70.6,117.04 24.1,38.45 48.6,76.34 73.7,113.69 25,37.34 50.6,74.13 76.7,110.38 26.1,36.26 52.6,71.97 79.7,107.16 27,35.18 54.5,69.84 82.5,103.97 28,34.14 56.5,67.76 85.4,100.87 29,33.1 58.4,65.7 88.2,97.8 48.1,51.7 97.3,102.12 147.7,151.28 50.5,49.16 102,97.07 154.6,143.76 52.7,46.69 106.4,92.17 161.2,136.46 54.8,44.29 110.6,87.41 167.5,129.38 56.8,41.97 114.7,82.79 173.5,122.51 58.8,39.72 118.6,78.33 179.3,115.88 60.7,37.54 122.3,74.01 184.8,109.44 62.4,35.44 125.8,69.84 189.9,103.25 64.2,33.4 129.2,65.81 195,97.25 65.7,31.45 132.3,61.93 199.5,91.49 67.3,29.57 135.3,58.2 204,85.95 68.7,27.74 138.1,54.6 208.1,80.61 70,26.01 140.7,51.17 212,75.51 71.2,24.34 143.1,47.87 215.5,70.62 72.4,22.75 145.3,44.72 218.8,65.94 73.4,21.23 147.4,41.72 221.8,61.5 74.4,19.78 149.3,38.85 224.5,57.24 75.3,18.4 151,36.12 227,53.2 76,17.09 152.3,33.54 229,49.39 76.7,15.84 153.6,31.1 230.9,45.79 77.2,14.69 154.7,28.83 232.4,42.44 77.7,13.61 155.6,26.7 233.7,39.31 78,12.61 156.3,24.73 234.6,36.41 78.4,11.68 156.8,22.92 235.4,33.75 78.5,10.82 157.1,21.25 235.8,31.3 78.6,10.05 157.3,19.74 235.9,29.09 78.7,9.36 157.3,18.38 235.8,27.11 78.6,8.74 157,17.18 235.4,25.36 78.4,8.19 156.6,16.12 234.7,23.84 78.1,7.72 156,15.22 233.7,22.55 77.7,7.32 155.2,14.47 232.5,21.48 77.2,7.01 154.2,13.88 230.9,20.64 76.7,6.77 153.1,13.44 229.1,20.05 76,6.6 151.7,13.15 227,19.66 75.3,6.52 150.2,13.01 224.6,19.52 74.5,6.51 148.5,13.03 222,19.61 73.5,6.57 146.6,13.2 219.1,19.91 72.4,6.72 144.4,13.52 215.8,20.46 71.3,6.94 142.1,14 212.3,21.23 70.2,7.23 139.7,14.62 208.5,22.23 68.9,7.6 137.1,15.41 204.5,23.46 67.5,8.05 134.2,16.34 200.2,24.91 65.9,8.58 131.1,17.44 195.5,26.61 64.4,9.18 127.9,18.68 190.6,28.53 62.7,9.85 124.5,20.06 185.5,30.67 60.9,10.61 120.9,21.61 179.9,33.05 59.1,11.44 117.2,23.31 174.3,35.65 57.1,12.35 113.2,25.17 168.2,38.49 72.5,17.55 143,36.25 211.5,56.08 68.5,19.82 135.1,40.77 199.8,62.8 64.7,22.04 127.5,45.17 188.5,69.37 61,24.19 120.1,49.45 177.4,75.74 57.4,26.29 112.9,53.61 166.8,81.94 53.8,28.33 105.9,57.67 156.3,87.98 50.4,30.3 99.1,61.59 146.2,93.82 47.1,32.23 92.6,65.4 136.5,99.49 43.9,34.09 86.2,69.1 127,104.99 40.8,35.9 80.1,72.68 117.9,110.32 37.8,37.64 74.1,76.13 109.1,115.46 34.9,39.32 68.4,79.47 100.5,120.43 32.1,40.95 62.9,82.7 92.3,125.22 29.5,42.52 57.6,85.8 84.5,129.83 26.9,44.03 52.5,88.8 76.9,134.27 24.4,45.48 47.6,91.67 69.7,138.54 22,46.87 42.9,94.39 62.8,142.53 19.8,48.15 38.6,96.91 56.4,146.28 17.7,49.37 34.5,99.34 50.3,149.87 15.8,50.55 30.6,101.66 44.6,153.32 14,51.66 27.1,103.87 39.3,156.6 12.3,52.73 23.7,105.99 34.4,159.74 10.6,53.75 20.5,107.99 29.7,162.71 9.2,54.72 17.7,109.91 25.6,165.54 7.8,55.63 15,111.72 21.7,168.21 6.6,56.5 12.6,113.42 18.2,170.73 5.5,57.31 10.5,115.02 15.1,173.1 4.5,58.07 8.6,116.52 12.3,175.3 3.7,58.79 7,117.92 9.9,177.37 3,59.45 5.6,119.21 8,179.27 2.3,60.06 4.4,120.4 6.2,181.02 1.9,60.61 3.5,121.49 5,182.61 1.5,61.13 2.8,122.48 4.1,184.05 1.2,61.57 2.3,123.35 3.4,185.31 1.1,61.97 2.2,124.12 3.3,186.44 1,62.31 2.1,124.79 3.3,187.4 1.1,62.62 2.4,125.37 3.7,188.23 1.4,62.86 2.9,125.84 4.6,188.9 1.7,63.1 3.5,126.2 5.7,189.4 2.1,63.2 4.5,126.5 7.1,189.8 2.7,63.3 5.7,126.7 9,190.1 3.4,63.3 7.1,126.7 11.2,190.1 4.1,63.3 8.6,126.7 13.7,190 5,63.3 10.5,126.6 16.5,189.8 6,63.2 12.6,126.4 19.7,189.5 7.2,63.1 14.9,126 23.3,188.9 8.4,62.9 17.5,125.7 27.2,188.3 9.8,62.6 20.2,125.1 31.4,187.5 11.3,62.3 23.2,124.5 36,186.5 12.9,61.9 26.5,123.7 41,185.3 14.5,61.6 29.9,123 46.2,184.2 16.3,61.1 33.6,122 51.9,182.7 18.2,60.6 37.5,121 57.8,181.2 20.3,60.1 41.6,119.9 64.1,179.4 22.5,59.5 46.1,118.7 70.8,177.6 24.7,58.9 50.6,117.4 77.8,175.6 27.1,58.2 55.5,116 85.1,173.5 29.7,57.4 60.6,114.5 92.9,171.1 32.2,56.7 65.8,112.9 100.8,168.7 35,55.9 71.4,111.2 109.3,166.2 37.8,54.9 77.2,109.3 118,163.3 40.8,54 83.1,107.5 127,160.5 43.9,53 89.4,105.5 136.5,157.4 47.1,52 95.9,103.4 146.3,154.3 27.5,27.7 55.2,55 83.1,81.9 28,26.9 56.1,53.4 84.5,79.5 28.3,26.1 56.9,51.7 85.7,77 28.7,25.3 57.7,50.1 86.9,74.6 29.1,24.4 58.5,48.5 88,72.2 29.5,23.6 59.2,46.9 89.1,69.8 29.9,22.9 59.9,45.4 90.1,67.5 30.3,22.2 60.6,43.9 91.2,65.3 30.5,21.4 61.2,42.4 92,63 30.9,20.6 61.8,40.9 92.9,60.8 31.2,19.9 62.4,39.4 93.8,58.6 31.4,19.2 62.9,38 94.5,56.5 31.6,18.5 63.4,36.6 95.2,54.4 31.9,17.8 63.8,35.2 95.9,52.4 32.1,17.1 64.2,33.8 96.5,50.3 32.2,16.4 64.6,32.5 97,48.3 32.5,15.8 65,31.2 97.6,46.3 32.6,15.2 65.2,30 98,44.5 32.7,14.5 65.5,28.7 98.4,42.6 32.8,13.8 65.7,27.4 98.7,40.7 33,13.3 66,26.2 99,38.9 33.1,12.7 66.2,25.1 99.3,37.2 33.1,12 66.3,23.8 99.4,35.4 33.2,11.5 66.4,22.7 99.6,33.7 33.2,10.9 66.4,21.6 99.7,32 33.2,10.4 66.4,20.6 99.6,30.5 33.3,9.8 66.5,19.4 99.7,28.8 33.2,9.3 66.4,18.4 99.6,27.3 33.1,8.8 66.3,17.4 99.4,25.7 33.1,8.4 66.2,16.5 99.3,24.3 33,7.9 66,15.5 99,22.9 32.9,7.3 65.8,14.5 98.7,21.4 v 148.4"
         style="fill:#ffffff;fill-opacity:1;fill-rule:nonzero;stroke:none"
         id="path180" />
    </g>
  </g>
</svg>
