<?xml version="1.0" encoding="utf-8"?>
<!-- Generator: Adobe Illustrator 26.0.0, SVG Export Plug-In . SVG Version: 6.00 Build 0)  -->
<svg version="1.1" xmlns="http://www.w3.org/2000/svg" xmlns:xlink="http://www.w3.org/1999/xlink" x="0px" y="0px"
	 viewBox="0 0 750 500" style="enable-background:new 0 0 750 500;" xml:space="preserve">
<style type="text/css">
	.st0{fill:#6FD1C9;}
	.st1{clip-path:url(#SVGID_00000175291053614808553750000006697806912116212151_);}
	.st2{fill:#2570B0;}
	.st3{fill:#0E4E7E;}
	.st4{clip-path:url(#SVGID_00000175291053614808553750000006697806912116212151_);fill:#F0E8A8;}
	.st5{fill:#F0E8A8;}
	.st6{fill:#F6F2CF;}
	.st7{clip-path:url(#SVGID_00000175291053614808553750000006697806912116212151_);fill:#0E4E7E;}
	.st8{clip-path:url(#SVGID_00000175291053614808553750000006697806912116212151_);fill:#F6F2CF;}
</style>
<g id="BACKGROUND">
	<rect class="st0" width="750" height="500"/>
</g>
<g id="OBJECTS">
	<g>
		<defs>
			<rect id="SVGID_1_" width="750" height="500"/>
		</defs>
		<clipPath id="SVGID_00000047764562256931221370000002312810314356201121_">
			<use xlink:href="#SVGID_1_"  style="overflow:visible;"/>
		</clipPath>
		<g style="clip-path:url(#SVGID_00000047764562256931221370000002312810314356201121_);">
			<polygon class="st2" points="112.31,82.36 27.96,-1.99 25.01,-1.99 109.36,82.36 			"/>
			<polygon class="st2" points="101.98,82.36 17.63,-1.99 14.68,-1.99 99.03,82.36 			"/>
			<polygon class="st2" points="81.33,82.36 -3.02,-1.99 -5.97,-1.99 78.38,82.36 			"/>
			<polygon class="st2" points="91.65,82.36 7.3,-1.99 4.36,-1.99 88.71,82.36 			"/>
		</g>
		<g style="clip-path:url(#SVGID_00000047764562256931221370000002312810314356201121_);">
			<g>
				<path class="st2" d="M40.36,43.58v-5.4h65.47c24.99,0,45.32-20.33,45.32-45.32h5.4c0,27.97-22.75,50.72-50.72,50.72H40.36z"/>
			</g>
			<g>
				<path class="st2" d="M40.36,27.68v-5.4h66.25c16.22,0,29.42-13.2,29.42-29.42h5.4c0,19.2-15.62,34.82-34.82,34.82H40.36z"/>
			</g>
		</g>
		<g style="clip-path:url(#SVGID_00000047764562256931221370000002312810314356201121_);">
			<g>
				<path class="st3" d="M609.94,277.95h5.01v-78.51c0-23.16,18.84-42,42-42v-5.01c-25.92,0-47.01,21.09-47.01,47.01V277.95z"/>
			</g>
			<g>
				<path class="st3" d="M624.67,277.95h5.01v-79.23c0-15.04,12.23-27.27,27.27-27.27v-5.01c-17.8,0-32.28,14.48-32.28,32.28V277.95
					z"/>
			</g>
		</g>
		<path style="clip-path:url(#SVGID_00000047764562256931221370000002312810314356201121_);fill:#F0E8A8;" d="M418.36,417.7v34.51
			c26.39,0,47.79,21.39,47.79,47.79h34.51C500.66,454.55,463.81,417.7,418.36,417.7z"/>
		<g style="clip-path:url(#SVGID_00000047764562256931221370000002312810314356201121_);">
			<g>
				<path class="st3" d="M560.81,453.03v5.38H456.43c-24.88,0-45.12,20.24-45.12,45.12h-5.38c0-27.85,22.65-50.5,50.5-50.5H560.81z"
					/>
			</g>
			<g>
				<path class="st3" d="M560.81,468.86v5.38H455.65c-16.15,0-29.29,13.14-29.29,29.29h-5.38c0-19.12,15.55-34.67,34.67-34.67
					H560.81z"/>
			</g>
		</g>
		<g style="clip-path:url(#SVGID_00000047764562256931221370000002312810314356201121_);">
			<polygon class="st2" points="719.44,422.47 730.75,422.47 696.28,388 696.28,399.32 			"/>
			<polygon class="st2" points="696.28,369.2 696.28,380.51 738.24,422.47 749.56,422.47 			"/>
			<polygon class="st2" points="696.28,350.4 696.28,361.71 757.05,422.47 768.36,422.47 			"/>
			<polygon class="st2" points="772.1,362.32 772.1,346.65 756.44,346.65 			"/>
			<polygon class="st2" points="711.34,346.65 700.03,346.65 772.1,418.73 772.1,407.42 			"/>
			<polygon class="st2" points="696.28,406.81 696.28,422.47 711.95,422.47 			"/>
			<polygon class="st2" points="748.95,346.65 737.63,346.65 772.1,381.12 772.1,369.81 			"/>
			<polygon class="st2" points="730.14,346.65 718.83,346.65 772.1,399.93 772.1,388.61 			"/>
		</g>
		<g style="clip-path:url(#SVGID_00000047764562256931221370000002312810314356201121_);">
			<polygon class="st2" points="678.21,500 582.05,409.05 578.2,409.05 674.36,500 			"/>
			<polygon class="st2" points="664.72,500 568.56,409.05 564.71,409.05 660.87,500 			"/>
			<polygon class="st2" points="637.75,500 541.59,409.05 537.74,409.05 633.9,500 			"/>
			<polygon class="st2" points="651.24,500 555.08,409.05 551.22,409.05 647.38,500 			"/>
		</g>
		<g style="clip-path:url(#SVGID_00000047764562256931221370000002312810314356201121_);">
			<polygon class="st5" points="794.61,143.37 698.45,52.43 694.6,52.43 790.76,143.37 			"/>
			<polygon class="st5" points="781.12,143.37 684.96,52.43 681.11,52.43 777.27,143.37 			"/>
			<polygon class="st5" points="754.15,143.37 657.99,52.43 654.13,52.43 750.29,143.37 			"/>
			<polygon class="st5" points="767.63,143.37 671.47,52.43 667.62,52.43 763.78,143.37 			"/>
		</g>
		<g style="clip-path:url(#SVGID_00000047764562256931221370000002312810314356201121_);">
			<g>
				<path class="st6" d="M-6.07,215.9c-1.03,0-1.87-0.84-1.87-1.87c0-1.03,0.84-1.87,1.87-1.87s1.87,0.84,1.87,1.87
					C-4.21,215.06-5.04,215.9-6.07,215.9z"/>
				<path class="st6" d="M-6.07,226.93c-1.03,0-1.87-0.84-1.87-1.87c0-1.03,0.84-1.87,1.87-1.87s1.87,0.84,1.87,1.87
					C-4.21,226.09-5.04,226.93-6.07,226.93z"/>
				<path class="st6" d="M-6.07,237.95c-1.03,0-1.87-0.84-1.87-1.87c0-1.03,0.84-1.87,1.87-1.87s1.87,0.84,1.87,1.87
					C-4.21,237.12-5.04,237.95-6.07,237.95z"/>
				<path class="st6" d="M-6.07,248.98c-1.03,0-1.87-0.84-1.87-1.87c0-1.03,0.84-1.87,1.87-1.87s1.87,0.84,1.87,1.87
					C-4.21,248.14-5.04,248.98-6.07,248.98z"/>
				<path class="st6" d="M-6.07,260.01c-1.03,0-1.87-0.84-1.87-1.87s0.84-1.87,1.87-1.87s1.87,0.84,1.87,1.87
					S-5.04,260.01-6.07,260.01z"/>
				<path class="st6" d="M-6.07,271.04c-1.03,0-1.87-0.84-1.87-1.87c0-1.03,0.84-1.87,1.87-1.87s1.87,0.84,1.87,1.87
					C-4.21,270.2-5.04,271.04-6.07,271.04z"/>
				<path class="st6" d="M-6.07,282.06c-1.03,0-1.87-0.84-1.87-1.87c0-1.03,0.84-1.87,1.87-1.87s1.87,0.84,1.87,1.87
					C-4.21,281.23-5.04,282.06-6.07,282.06z"/>
				<path class="st6" d="M-6.07,293.09c-1.03,0-1.87-0.84-1.87-1.87c0-1.03,0.84-1.87,1.87-1.87s1.87,0.84,1.87,1.87
					C-4.21,292.25-5.04,293.09-6.07,293.09z"/>
			</g>
			<g>
				<path class="st6" d="M0.74,221.41c-1.03,0-1.87-0.84-1.87-1.87c0-1.03,0.84-1.87,1.87-1.87c1.03,0,1.87,0.84,1.87,1.87
					C2.6,220.58,1.77,221.41,0.74,221.41z"/>
				<path class="st6" d="M0.74,232.44c-1.03,0-1.87-0.84-1.87-1.87c0-1.03,0.84-1.87,1.87-1.87c1.03,0,1.87,0.84,1.87,1.87
					C2.6,231.6,1.77,232.44,0.74,232.44z"/>
				<path class="st6" d="M0.74,243.47c-1.03,0-1.87-0.84-1.87-1.87c0-1.03,0.84-1.87,1.87-1.87c1.03,0,1.87,0.84,1.87,1.87
					C2.6,242.63,1.77,243.47,0.74,243.47z"/>
				<path class="st6" d="M0.74,254.49c-1.03,0-1.87-0.84-1.87-1.87c0-1.03,0.84-1.87,1.87-1.87c1.03,0,1.87,0.84,1.87,1.87
					C2.6,253.66,1.77,254.49,0.74,254.49z"/>
				<path class="st6" d="M0.74,265.52c-1.03,0-1.87-0.84-1.87-1.87c0-1.03,0.84-1.87,1.87-1.87c1.03,0,1.87,0.84,1.87,1.87
					C2.6,264.69,1.77,265.52,0.74,265.52z"/>
				<path class="st6" d="M0.74,276.55c-1.03,0-1.87-0.84-1.87-1.87c0-1.03,0.84-1.87,1.87-1.87c1.03,0,1.87,0.84,1.87,1.87
					C2.6,275.71,1.77,276.55,0.74,276.55z"/>
				<path class="st6" d="M0.74,287.58c-1.03,0-1.87-0.84-1.87-1.87c0-1.03,0.84-1.87,1.87-1.87c1.03,0,1.87,0.84,1.87,1.87
					C2.6,286.74,1.77,287.58,0.74,287.58z"/>
			</g>
			<g>
				<path class="st6" d="M7.55,226.93c-1.03,0-1.87-0.84-1.87-1.87c0-1.03,0.84-1.87,1.87-1.87s1.87,0.84,1.87,1.87
					C9.42,226.09,8.58,226.93,7.55,226.93z"/>
				<path class="st6" d="M7.55,237.95c-1.03,0-1.87-0.84-1.87-1.87c0-1.03,0.84-1.87,1.87-1.87s1.87,0.84,1.87,1.87
					C9.42,237.12,8.58,237.95,7.55,237.95z"/>
				<path class="st6" d="M7.55,248.98c-1.03,0-1.87-0.84-1.87-1.87c0-1.03,0.84-1.87,1.87-1.87s1.87,0.84,1.87,1.87
					C9.42,248.14,8.58,248.98,7.55,248.98z"/>
				<path class="st6" d="M7.55,260.01c-1.03,0-1.87-0.84-1.87-1.87s0.84-1.87,1.87-1.87s1.87,0.84,1.87,1.87
					S8.58,260.01,7.55,260.01z"/>
				<path class="st6" d="M7.55,271.04c-1.03,0-1.87-0.84-1.87-1.87c0-1.03,0.84-1.87,1.87-1.87s1.87,0.84,1.87,1.87
					C9.42,270.2,8.58,271.04,7.55,271.04z"/>
				<path class="st6" d="M7.55,282.06c-1.03,0-1.87-0.84-1.87-1.87c0-1.03,0.84-1.87,1.87-1.87s1.87,0.84,1.87,1.87
					C9.42,281.23,8.58,282.06,7.55,282.06z"/>
			</g>
			<g>
				<path class="st6" d="M14.36,232.44c-1.03,0-1.87-0.84-1.87-1.87c0-1.03,0.84-1.87,1.87-1.87s1.87,0.84,1.87,1.87
					C16.23,231.6,15.39,232.44,14.36,232.44z"/>
				<path class="st6" d="M14.36,243.47c-1.03,0-1.87-0.84-1.87-1.87c0-1.03,0.84-1.87,1.87-1.87s1.87,0.84,1.87,1.87
					C16.23,242.63,15.39,243.47,14.36,243.47z"/>
				<path class="st6" d="M14.36,254.49c-1.03,0-1.87-0.84-1.87-1.87c0-1.03,0.84-1.87,1.87-1.87s1.87,0.84,1.87,1.87
					C16.23,253.66,15.39,254.49,14.36,254.49z"/>
				<path class="st6" d="M14.36,265.52c-1.03,0-1.87-0.84-1.87-1.87c0-1.03,0.84-1.87,1.87-1.87s1.87,0.84,1.87,1.87
					C16.23,264.69,15.39,265.52,14.36,265.52z"/>
				<path class="st6" d="M14.36,276.55c-1.03,0-1.87-0.84-1.87-1.87c0-1.03,0.84-1.87,1.87-1.87s1.87,0.84,1.87,1.87
					C16.23,275.71,15.39,276.55,14.36,276.55z"/>
			</g>
			<g>
				<path class="st6" d="M21.17,237.95c-1.03,0-1.87-0.84-1.87-1.87c0-1.03,0.84-1.87,1.87-1.87c1.03,0,1.87,0.84,1.87,1.87
					C23.04,237.12,22.2,237.95,21.17,237.95z"/>
				<path class="st6" d="M21.17,248.98c-1.03,0-1.87-0.84-1.87-1.87c0-1.03,0.84-1.87,1.87-1.87c1.03,0,1.87,0.84,1.87,1.87
					C23.04,248.14,22.2,248.98,21.17,248.98z"/>
				<path class="st6" d="M21.17,260.01c-1.03,0-1.87-0.84-1.87-1.87s0.84-1.87,1.87-1.87c1.03,0,1.87,0.84,1.87,1.87
					S22.2,260.01,21.17,260.01z"/>
				<path class="st6" d="M21.17,271.04c-1.03,0-1.87-0.84-1.87-1.87c0-1.03,0.84-1.87,1.87-1.87c1.03,0,1.87,0.84,1.87,1.87
					C23.04,270.2,22.2,271.04,21.17,271.04z"/>
			</g>
			<g>
				<path class="st6" d="M27.98,243.47c-1.03,0-1.87-0.84-1.87-1.87c0-1.03,0.84-1.87,1.87-1.87c1.03,0,1.87,0.84,1.87,1.87
					C29.85,242.63,29.01,243.47,27.98,243.47z"/>
				<path class="st6" d="M27.98,254.49c-1.03,0-1.87-0.84-1.87-1.87c0-1.03,0.84-1.87,1.87-1.87c1.03,0,1.87,0.84,1.87,1.87
					C29.85,253.66,29.01,254.49,27.98,254.49z"/>
				<path class="st6" d="M27.98,265.52c-1.03,0-1.87-0.84-1.87-1.87c0-1.03,0.84-1.87,1.87-1.87c1.03,0,1.87,0.84,1.87,1.87
					C29.85,264.69,29.01,265.52,27.98,265.52z"/>
			</g>
			<g>
				<path class="st6" d="M34.79,248.98c-1.03,0-1.87-0.84-1.87-1.87c0-1.03,0.84-1.87,1.87-1.87s1.87,0.84,1.87,1.87
					C36.66,248.14,35.82,248.98,34.79,248.98z"/>
				<path class="st6" d="M34.79,260.01c-1.03,0-1.87-0.84-1.87-1.87s0.84-1.87,1.87-1.87s1.87,0.84,1.87,1.87
					S35.82,260.01,34.79,260.01z"/>
			</g>
			<g>
				<path class="st6" d="M41.6,254.49c-1.03,0-1.87-0.84-1.87-1.87c0-1.03,0.84-1.87,1.87-1.87c1.03,0,1.87,0.84,1.87,1.87
					C43.47,253.66,42.63,254.49,41.6,254.49z"/>
			</g>
		</g>
		<path style="clip-path:url(#SVGID_00000047764562256931221370000002312810314356201121_);fill:#0E4E7E;" d="M333.48,533.89v-12.96
			c-19.07,0-34.52-16.18-34.52-36.13s15.46-36.13,34.52-36.13h43.54v-12.96h-43.54c-25.91,0-46.91,21.98-46.91,49.09
			C286.58,511.91,307.58,533.89,333.48,533.89z"/>
		<g style="clip-path:url(#SVGID_00000047764562256931221370000002312810314356201121_);">
			<path class="st2" d="M759.06,239.97v-19.04c-29.33,0-53.1-23.77-53.1-53.1c0-29.33,23.77-53.1,53.1-53.1V95.68
				c-39.84,0-72.14,32.3-72.14,72.14C686.92,207.67,719.22,239.97,759.06,239.97z"/>
			<path class="st6" d="M724.28,167.82c0,18.85,15.28,34.13,34.13,34.13v-68.26C739.56,133.69,724.28,148.97,724.28,167.82z"/>
		</g>
		<path style="clip-path:url(#SVGID_00000047764562256931221370000002312810314356201121_);fill:#0E4E7E;" d="M197.42-17.57h22.28
			c0,17.04,13.81,30.85,30.85,30.85v22.28C221.21,35.55,197.42,11.77,197.42-17.57z"/>
		<path style="clip-path:url(#SVGID_00000047764562256931221370000002312810314356201121_);fill:#0E4E7E;" d="M79.6-6.41H45.78
			c0,25.86-20.96,46.82-46.82,46.82v33.82C43.49,74.23,79.6,38.13,79.6-6.41z"/>
		<path style="clip-path:url(#SVGID_00000047764562256931221370000002312810314356201121_);fill:#0E4E7E;" d="M754.36,313.93v-33.21
			c-25.4,0-45.98-20.59-45.98-45.98h-33.21C675.16,278.47,710.62,313.93,754.36,313.93z"/>
		<path style="clip-path:url(#SVGID_00000047764562256931221370000002312810314356201121_);fill:#F6F2CF;" d="M613.16,510.9h29.14
			c0-22.29,18.07-40.35,40.35-40.35v-29.14C644.28,441.41,613.16,472.52,613.16,510.9z"/>
		<g style="clip-path:url(#SVGID_00000047764562256931221370000002312810314356201121_);">
			<path class="st6" d="M533.23,426.93l-32.62,32.62c9.01,9.01,23.61,9.01,32.62,0S542.24,435.94,533.23,426.93z"/>
			<path class="st3" d="M500.62,426.93c9.01-9.01,23.61-9.01,32.62,0l-32.62,32.62C491.61,450.54,491.61,435.94,500.62,426.93z"/>
		</g>
		<g style="clip-path:url(#SVGID_00000047764562256931221370000002312810314356201121_);">
			<g>
				<circle class="st6" cx="250.16" cy="-27.47" r="7.93"/>
				<circle class="st6" cx="283.33" cy="-27.47" r="7.93"/>
				<path class="st6" d="M324.43-27.47c0,4.38-3.55,7.93-7.93,7.93c-4.38,0-7.93-3.55-7.93-7.93s3.55-7.93,7.93-7.93
					C320.88-35.4,324.43-31.85,324.43-27.47z"/>
				<circle class="st6" cx="349.66" cy="-27.47" r="7.93"/>
			</g>
			<g>
				<circle class="st6" cx="250.16" cy="0.41" r="7.93"/>
				<circle class="st6" cx="283.33" cy="0.41" r="7.93"/>
				<path class="st6" d="M324.43,0.41c0,4.38-3.55,7.93-7.93,7.93c-4.38,0-7.93-3.55-7.93-7.93s3.55-7.93,7.93-7.93
					C320.88-7.52,324.43-3.97,324.43,0.41z"/>
				<circle class="st6" cx="349.66" cy="0.41" r="7.93"/>
			</g>
		</g>
		<g style="clip-path:url(#SVGID_00000047764562256931221370000002312810314356201121_);">
			<g>
				<circle class="st5" cx="11.86" cy="11.19" r="5.24"/>
				<circle class="st5" cx="33.76" cy="11.19" r="5.24"/>
				<path class="st5" d="M60.89,11.19c0,2.89-2.34,5.24-5.24,5.24s-5.24-2.34-5.24-5.24s2.34-5.24,5.24-5.24S60.89,8.29,60.89,11.19
					z"/>
				<circle class="st5" cx="77.55" cy="11.19" r="5.24"/>
			</g>
			<g>
				<circle class="st5" cx="11.86" cy="29.59" r="5.24"/>
				<circle class="st5" cx="33.76" cy="29.59" r="5.24"/>
				<path class="st5" d="M60.89,29.59c0,2.89-2.34,5.24-5.24,5.24s-5.24-2.34-5.24-5.24s2.34-5.24,5.24-5.24S60.89,26.7,60.89,29.59
					z"/>
				<circle class="st5" cx="77.55" cy="29.59" r="5.24"/>
			</g>
		</g>
		<g style="clip-path:url(#SVGID_00000047764562256931221370000002312810314356201121_);">
			<g>
				<path class="st6" d="M643.56,31.07c0,2.15-1.74,3.89-3.89,3.89c-2.15,0-3.89-1.74-3.89-3.89c0-2.15,1.74-3.89,3.89-3.89
					C641.81,27.18,643.56,28.92,643.56,31.07z"/>
				<path class="st6" d="M659.84,31.07c0,2.15-1.74,3.89-3.89,3.89c-2.15,0-3.89-1.74-3.89-3.89c0-2.15,1.74-3.89,3.89-3.89
					C658.09,27.18,659.84,28.92,659.84,31.07z"/>
				<path class="st6" d="M676.12,31.07c0,2.15-1.74,3.89-3.89,3.89c-2.15,0-3.89-1.74-3.89-3.89c0-2.15,1.74-3.89,3.89-3.89
					C674.37,27.18,676.12,28.92,676.12,31.07z"/>
				<path class="st6" d="M692.4,31.07c0,2.15-1.74,3.89-3.89,3.89c-2.15,0-3.89-1.74-3.89-3.89c0-2.15,1.74-3.89,3.89-3.89
					C690.65,27.18,692.4,28.92,692.4,31.07z"/>
			</g>
			<g>
				<path class="st6" d="M643.56,44.75c0,2.15-1.74,3.89-3.89,3.89c-2.15,0-3.89-1.74-3.89-3.89c0-2.15,1.74-3.89,3.89-3.89
					C641.81,40.86,643.56,42.6,643.56,44.75z"/>
				<path class="st6" d="M659.84,44.75c0,2.15-1.74,3.89-3.89,3.89c-2.15,0-3.89-1.74-3.89-3.89c0-2.15,1.74-3.89,3.89-3.89
					C658.09,40.86,659.84,42.6,659.84,44.75z"/>
				<path class="st6" d="M676.12,44.75c0,2.15-1.74,3.89-3.89,3.89c-2.15,0-3.89-1.74-3.89-3.89c0-2.15,1.74-3.89,3.89-3.89
					C674.37,40.86,676.12,42.6,676.12,44.75z"/>
				<path class="st6" d="M692.4,44.75c0,2.15-1.74,3.89-3.89,3.89c-2.15,0-3.89-1.74-3.89-3.89c0-2.15,1.74-3.89,3.89-3.89
					C690.65,40.86,692.4,42.6,692.4,44.75z"/>
			</g>
		</g>
		<g style="clip-path:url(#SVGID_00000047764562256931221370000002312810314356201121_);">
			<g>
				<path class="st6" d="M261.86,462.62c0,1.95-1.58,3.52-3.52,3.52c-1.95,0-3.52-1.58-3.52-3.52c0-1.95,1.58-3.52,3.52-3.52
					C260.28,459.09,261.86,460.67,261.86,462.62z"/>
				<circle class="st6" cx="273.07" cy="462.62" r="3.52"/>
				<path class="st6" d="M291.34,462.62c0,1.95-1.58,3.52-3.52,3.52c-1.95,0-3.52-1.58-3.52-3.52c0-1.95,1.58-3.52,3.52-3.52
					C289.76,459.09,291.34,460.67,291.34,462.62z"/>
				<path class="st6" d="M306.08,462.62c0,1.95-1.58,3.52-3.52,3.52c-1.95,0-3.52-1.58-3.52-3.52c0-1.95,1.58-3.52,3.52-3.52
					C304.5,459.09,306.08,460.67,306.08,462.62z"/>
			</g>
			<g>
				<path class="st6" d="M261.86,475.01c0,1.95-1.58,3.52-3.52,3.52c-1.95,0-3.52-1.58-3.52-3.52c0-1.95,1.58-3.52,3.52-3.52
					C260.28,471.48,261.86,473.06,261.86,475.01z"/>
				<circle class="st6" cx="273.07" cy="475.01" r="3.52"/>
				<path class="st6" d="M291.34,475.01c0,1.95-1.58,3.52-3.52,3.52c-1.95,0-3.52-1.58-3.52-3.52c0-1.95,1.58-3.52,3.52-3.52
					C289.76,471.48,291.34,473.06,291.34,475.01z"/>
				<path class="st6" d="M306.08,475.01c0,1.95-1.58,3.52-3.52,3.52c-1.95,0-3.52-1.58-3.52-3.52c0-1.95,1.58-3.52,3.52-3.52
					C304.5,471.48,306.08,473.06,306.08,475.01z"/>
			</g>
		</g>
		<g style="clip-path:url(#SVGID_00000047764562256931221370000002312810314356201121_);">
			<g>
				<path class="st3" d="M664.46,406.32c2.89,0,5.23,2.34,5.23,5.23s-2.34,5.23-5.23,5.23c-2.89,0-5.23-2.34-5.23-5.23
					S661.57,406.32,664.46,406.32z"/>
				<path class="st3" d="M664.46,384.45c2.89,0,5.23,2.34,5.23,5.23c0,2.89-2.34,5.23-5.23,5.23c-2.89,0-5.23-2.34-5.23-5.23
					C659.23,386.79,661.57,384.45,664.46,384.45z"/>
				<path class="st3" d="M664.46,362.57c2.89,0,5.23,2.34,5.23,5.23c0,2.89-2.34,5.23-5.23,5.23c-2.89,0-5.23-2.34-5.23-5.23
					C659.23,364.91,661.57,362.57,664.46,362.57z"/>
				<path class="st3" d="M664.46,340.69c2.89,0,5.23,2.34,5.23,5.23c0,2.89-2.34,5.23-5.23,5.23c-2.89,0-5.23-2.34-5.23-5.23
					C659.23,343.03,661.57,340.69,664.46,340.69z"/>
			</g>
			<g>
				<circle class="st3" cx="682.85" cy="411.56" r="5.23"/>
				<circle class="st3" cx="682.85" cy="389.68" r="5.23"/>
				<path class="st3" d="M682.85,362.57c2.89,0,5.23,2.34,5.23,5.23c0,2.89-2.34,5.23-5.23,5.23s-5.23-2.34-5.23-5.23
					C677.62,364.91,679.96,362.57,682.85,362.57z"/>
				<circle class="st3" cx="682.85" cy="345.92" r="5.23"/>
			</g>
		</g>
		<g style="clip-path:url(#SVGID_00000047764562256931221370000002312810314356201121_);">
			<polygon class="st5" points="-44.07,148.47 -38.58,142.62 38.55,142.62 44.04,148.47 			"/>
			<polygon class="st5" points="-6.16,108.06 -0.01,101.5 6.14,108.06 			"/>
			<polygon class="st5" points="29.08,132.52 34.57,138.37 -34.59,138.37 -29.1,132.52 			"/>
			<polygon class="st5" points="48.03,152.73 54.18,159.28 -54.21,159.28 -48.06,152.73 			"/>
			<polygon class="st5" points="10.12,112.31 15.61,118.16 -15.64,118.16 -10.15,112.31 			"/>
			<polygon class="st5" points="19.6,122.41 25.09,128.27 -25.12,128.27 -19.63,122.41 			"/>
		</g>
		<g style="clip-path:url(#SVGID_00000047764562256931221370000002312810314356201121_);">
			<polygon class="st5" points="780.86,272.7 776.96,263.89 722.16,263.89 718.25,272.7 			"/>
			<polygon class="st5" points="753.93,211.83 749.56,201.96 745.19,211.83 			"/>
			<polygon class="st5" points="728.89,248.67 724.99,257.49 774.13,257.49 770.23,248.67 			"/>
			<polygon class="st5" points="715.42,279.1 711.05,288.98 788.06,288.98 783.69,279.1 			"/>
			<polygon class="st5" points="742.35,218.23 738.45,227.05 760.66,227.05 756.76,218.23 			"/>
			<polygon class="st5" points="735.62,233.45 731.72,242.27 767.39,242.27 763.49,233.45 			"/>
		</g>
		<g style="clip-path:url(#SVGID_00000047764562256931221370000002312810314356201121_);">
			<polygon class="st3" points="701.88,167.82 646.85,112.79 646.85,167.82 			"/>
			<polygon class="st2" points="701.88,167.82 646.85,167.82 646.85,222.86 			"/>
			<polygon class="st5" points="676.83,167.82 646.85,137.84 646.85,197.81 			"/>
		</g>
		<g style="clip-path:url(#SVGID_00000047764562256931221370000002312810314356201121_);">
			<polygon class="st3" points="58.69,214.62 21.66,177.59 21.66,194.44 41.84,214.62 			"/>
			<polygon class="st2" points="58.69,214.62 41.84,214.62 21.66,234.8 21.66,251.65 			"/>
		</g>
		<g style="clip-path:url(#SVGID_00000047764562256931221370000002312810314356201121_);">
			<polygon class="st3" points="716.12,55.03 751.65,90.56 751.65,74.39 732.29,55.03 			"/>
			<polygon class="st2" points="716.12,55.03 732.29,55.03 751.65,35.67 751.65,19.5 			"/>
		</g>
		<g style="clip-path:url(#SVGID_00000047764562256931221370000002312810314356201121_);">
			<g>
				<path class="st5" d="M737.36,436.38h-7.78v-69.64c0-35.96-29.26-65.22-65.22-65.22v-7.78c40.25,0,73,32.75,73,73V436.38z"/>
			</g>
			<g>
				<path class="st5" d="M714.48,436.38h-7.78v-70.76c0-23.35-19-42.34-42.34-42.34v-7.78c27.64,0,50.12,22.48,50.12,50.12V436.38z"
					/>
			</g>
		</g>
		<g style="clip-path:url(#SVGID_00000047764562256931221370000002312810314356201121_);">
			<polygon class="st3" points="53.45,126.67 57.91,126.67 44.33,113.1 44.33,117.55 			"/>
			<polygon class="st3" points="44.33,105.69 44.33,110.15 60.86,126.67 65.31,126.67 			"/>
			<polygon class="st3" points="44.33,98.28 44.33,102.74 68.26,126.67 72.72,126.67 			"/>
			<polygon class="st3" points="74.19,102.98 74.19,96.81 68.02,96.81 			"/>
			<polygon class="st3" points="50.26,96.81 45.81,96.81 74.19,125.2 74.19,120.74 			"/>
			<polygon class="st3" points="44.33,120.5 44.33,126.67 50.5,126.67 			"/>
			<polygon class="st3" points="65.07,96.81 60.62,96.81 74.19,110.39 74.19,105.93 			"/>
			<polygon class="st3" points="57.67,96.81 53.21,96.81 74.19,117.79 74.19,113.34 			"/>
		</g>
		<g style="clip-path:url(#SVGID_00000047764562256931221370000002312810314356201121_);">
			<g>
				<rect x="609.94" y="283.47" class="st6" width="19.09" height="8.75"/>
				<rect x="634.9" y="283.47" class="st6" width="19.09" height="8.75"/>
			</g>
			<g>
				<rect x="609.94" y="299.97" class="st6" width="19.09" height="8.75"/>
				<rect x="634.9" y="299.97" class="st6" width="19.09" height="8.75"/>
			</g>
			<g>
				<rect x="609.94" y="316.47" class="st6" width="19.09" height="8.75"/>
				<rect x="634.9" y="316.47" class="st6" width="19.09" height="8.75"/>
			</g>
			<g>
				<rect x="609.94" y="332.97" class="st6" width="19.09" height="8.75"/>
				<rect x="634.9" y="332.97" class="st6" width="19.09" height="8.75"/>
			</g>
			<g>
				<rect x="609.94" y="349.47" class="st6" width="19.09" height="8.75"/>
				<rect x="634.9" y="349.47" class="st6" width="19.09" height="8.75"/>
			</g>
		</g>
		<g style="clip-path:url(#SVGID_00000047764562256931221370000002312810314356201121_);">
			<g>
				<rect x="312.93" y="487.59" class="st5" width="10.08" height="14.62"/>
				<rect x="312.93" y="468.48" class="st5" width="10.08" height="14.62"/>
			</g>
			<g>
				<rect x="331.93" y="487.59" class="st5" width="10.08" height="14.62"/>
				<rect x="331.93" y="468.48" class="st5" width="10.08" height="14.62"/>
			</g>
			<g>
				<rect x="350.94" y="487.59" class="st5" width="10.08" height="14.62"/>
				<rect x="350.94" y="468.48" class="st5" width="10.08" height="14.62"/>
			</g>
			<g>
				<rect x="369.94" y="487.59" class="st5" width="10.08" height="14.62"/>
				<rect x="369.94" y="468.48" class="st5" width="10.08" height="14.62"/>
			</g>
			<g>
				<rect x="388.94" y="487.59" class="st5" width="10.08" height="14.62"/>
				<rect x="388.94" y="468.48" class="st5" width="10.08" height="14.62"/>
			</g>
		</g>
		<polygon style="clip-path:url(#SVGID_00000047764562256931221370000002312810314356201121_);fill:#F6F2CF;" points="101.58,50.85 
			97.37,50.85 97.37,46.64 96.05,46.64 96.05,50.85 91.84,50.85 91.84,52.17 96.05,52.17 96.05,56.38 97.37,56.38 97.37,52.17 
			101.58,52.17 		"/>
		<polygon style="clip-path:url(#SVGID_00000047764562256931221370000002312810314356201121_);fill:#F6F2CF;" points="117.31,50.85 
			113.1,50.85 113.1,46.64 111.78,46.64 111.78,50.85 107.57,50.85 107.57,52.17 111.78,52.17 111.78,56.38 113.1,56.38 
			113.1,52.17 117.31,52.17 		"/>
		<polygon style="clip-path:url(#SVGID_00000047764562256931221370000002312810314356201121_);fill:#F6F2CF;" points="133.04,50.85 
			128.83,50.85 128.83,46.64 127.5,46.64 127.5,50.85 123.29,50.85 123.29,52.17 127.5,52.17 127.5,56.38 128.83,56.38 
			128.83,52.17 133.04,52.17 		"/>
		<polygon style="clip-path:url(#SVGID_00000047764562256931221370000002312810314356201121_);fill:#F6F2CF;" points="148.77,50.85 
			144.56,50.85 144.56,46.64 143.23,46.64 143.23,50.85 139.02,50.85 139.02,52.17 143.23,52.17 143.23,56.38 144.56,56.38 
			144.56,52.17 148.77,52.17 		"/>
		<polygon style="clip-path:url(#SVGID_00000047764562256931221370000002312810314356201121_);fill:#0E4E7E;" points="
			668.98,435.36 654.63,435.36 654.63,421 650.11,421 650.11,435.36 635.76,435.36 635.76,439.87 650.11,439.87 650.11,454.23 
			654.63,454.23 654.63,439.87 668.98,439.87 		"/>
		<g style="clip-path:url(#SVGID_00000047764562256931221370000002312810314356201121_);">
			<polygon class="st3" points="112.48,32.14 88.98,8.64 112.48,8.64 			"/>
			<polygon class="st6" points="112.48,32.14 88.98,32.14 88.98,8.64 			"/>
		</g>
		<g style="clip-path:url(#SVGID_00000047764562256931221370000002312810314356201121_);">
			<polygon class="st2" points="733.69,323.85 733.69,302.26 744.49,313.05 			"/>
			<polygon class="st6" points="722.9,313.05 733.69,323.85 733.69,302.26 			"/>
		</g>
		<g style="clip-path:url(#SVGID_00000047764562256931221370000002312810314356201121_);">
			<polygon class="st3" points="686.72,227.72 686.72,201.75 699.7,214.74 			"/>
			<polygon class="st5" points="673.74,214.74 686.72,227.72 686.72,201.75 			"/>
		</g>
		<g style="clip-path:url(#SVGID_00000047764562256931221370000002312810314356201121_);">
			<polygon class="st3" points="756,506 678.99,428.99 756,428.99 			"/>
			<polygon class="st2" points="756,506 678.99,506 678.99,428.99 			"/>
		</g>
		<g style="clip-path:url(#SVGID_00000047764562256931221370000002312810314356201121_);">
			<g>
				<polygon class="st3" points="409.62,463.69 365.68,417.7 409.62,417.7 				"/>
				<polygon class="st2" points="409.62,463.69 365.68,463.69 365.68,417.7 				"/>
			</g>
			<rect x="377.05" y="429.61" class="st6" width="21.2" height="22.18"/>
		</g>
		<g style="clip-path:url(#SVGID_00000047764562256931221370000002312810314356201121_);">
			<g>
				<polygon class="st3" points="202.26,44.16 202.26,14.96 216.86,29.56 				"/>
				<polygon class="st2" points="202.26,44.16 187.66,29.56 202.26,14.96 				"/>
			</g>
			
				<rect x="197.28" y="24.58" transform="matrix(0.7071 -0.7071 0.7071 0.7071 38.3383 151.6793)" class="st6" width="9.96" height="9.96"/>
		</g>
		<g style="clip-path:url(#SVGID_00000047764562256931221370000002312810314356201121_);">
			<g>
				<polygon class="st3" points="47.26,191.16 47.26,165.96 59.86,178.56 				"/>
				<polygon class="st2" points="47.26,191.16 34.66,178.56 47.26,165.96 				"/>
			</g>
			
				<rect x="42.97" y="174.26" transform="matrix(0.7071 -0.7071 0.7071 0.7071 -112.4191 85.7189)" class="st5" width="8.59" height="8.59"/>
		</g>
		<g style="clip-path:url(#SVGID_00000047764562256931221370000002312810314356201121_);">
			<g>
				<polygon class="st3" points="165.61,43.76 165.61,-48.18 211.58,-2.21 				"/>
				<polygon class="st2" points="165.61,43.76 119.64,-2.21 165.61,-48.18 				"/>
			</g>
			
				<rect x="149.93" y="-17.89" transform="matrix(0.7071 -0.7071 0.7071 0.7071 50.0678 116.4587)" class="st5" width="31.36" height="31.36"/>
		</g>
		<g style="clip-path:url(#SVGID_00000047764562256931221370000002312810314356201121_);">
			<g>
				<polygon class="st3" points="29.97,123.36 29.97,42.23 70.53,82.79 				"/>
				<polygon class="st2" points="29.97,123.36 -10.59,82.79 29.97,42.23 				"/>
			</g>
			
				<rect x="16.14" y="68.96" transform="matrix(0.7071 -0.7071 0.7071 0.7071 -49.7648 45.4427)" class="st6" width="27.67" height="27.67"/>
		</g>
		<g style="clip-path:url(#SVGID_00000047764562256931221370000002312810314356201121_);">
			<g>
				<polygon class="st3" points="708.04,46.78 708.04,-47.83 755.34,-0.52 				"/>
				<polygon class="st2" points="708.04,46.78 660.73,-0.52 708.04,-47.83 				"/>
			</g>
			
				<rect x="691.91" y="-16.65" transform="matrix(0.7071 -0.7071 0.7071 0.7071 207.7474 500.5049)" class="st5" width="32.27" height="32.27"/>
		</g>
		<g style="clip-path:url(#SVGID_00000047764562256931221370000002312810314356201121_);">
			<g>
				<polygon class="st3" points="681.3,134.35 681.3,91.43 702.77,112.89 				"/>
				<polygon class="st2" points="681.3,134.35 659.84,112.89 681.3,91.43 				"/>
			</g>
			
				<rect x="673.99" y="105.57" transform="matrix(0.7071 -0.7071 0.7071 0.7071 119.7232 514.8165)" class="st6" width="14.64" height="14.64"/>
		</g>
		<g style="clip-path:url(#SVGID_00000047764562256931221370000002312810314356201121_);">
			<g>
				<polygon class="st3" points="664.72,286.83 664.72,238.77 640.69,262.8 				"/>
				<polygon class="st2" points="664.72,286.83 688.75,262.8 664.72,238.77 				"/>
			</g>
			
				<rect x="656.53" y="254.61" transform="matrix(0.7071 -0.7071 0.7071 0.7071 8.8643 547.0034)" class="st6" width="16.39" height="16.39"/>
		</g>
		<g style="clip-path:url(#SVGID_00000047764562256931221370000002312810314356201121_);">
			<g>
				<polygon class="st3" points="562.62,558.43 562.62,444.49 619.59,501.46 				"/>
				<polygon class="st2" points="562.62,558.43 505.64,501.46 562.62,444.49 				"/>
			</g>
			
				<rect x="543.19" y="482.03" transform="matrix(0.7071 -0.7071 0.7071 0.7071 -189.8025 544.7059)" class="st5" width="38.86" height="38.86"/>
		</g>
		<g style="clip-path:url(#SVGID_00000047764562256931221370000002312810314356201121_);">
			<polygon class="st3" points="640.63,60.26 640.63,73.77 653.22,86.36 640.63,98.94 640.63,112.45 666.73,86.36 			"/>
			<polygon class="st5" points="628.04,86.36 640.63,73.77 640.63,60.26 614.53,86.36 640.63,112.45 640.63,98.94 			"/>
		</g>
		<g style="clip-path:url(#SVGID_00000047764562256931221370000002312810314356201121_);">
			<polygon class="st5" points="622.91,367.38 622.91,384.52 638.88,400.49 622.91,416.46 622.91,433.61 656.02,400.49 			"/>
			<polygon class="st3" points="606.94,400.49 622.91,384.52 622.91,367.38 589.8,400.49 622.91,433.61 622.91,416.46 			"/>
		</g>
		
			<rect x="648.15" y="-12.41" transform="matrix(0.7071 -0.7071 0.7071 0.7071 193.6882 466.5635)" style="clip-path:url(#SVGID_00000047764562256931221370000002312810314356201121_);fill:#F6F2CF;" width="23.78" height="23.78"/>
		<g style="clip-path:url(#SVGID_00000047764562256931221370000002312810314356201121_);">
			<path class="st3" d="M0,156.26v7.49c11.54,0,20.9,9.36,20.9,20.9s-9.36,20.9-20.9,20.9v7.49c15.68,0,28.39-12.71,28.39-28.39
				S15.68,156.26,0,156.26z"/>
			<path class="st6" d="M10.42,184.65c0-5.73-4.65-10.38-10.38-10.38v20.76C5.77,195.03,10.42,190.38,10.42,184.65z"/>
		</g>
		<g style="clip-path:url(#SVGID_00000047764562256931221370000002312810314356201121_);">
			<g>
				<path class="st3" d="M18.25,326.86h-2.07v-76.97c0-9.59-7.8-17.39-17.39-17.39v-2.07c10.73,0,19.46,8.73,19.46,19.46V326.86z"/>
			</g>
			<g>
				<path class="st3" d="M12.15,326.86h-2.07v-77.27c0-6.22-5.06-11.29-11.29-11.29v-2.07c7.37,0,13.36,5.99,13.36,13.36V326.86z"/>
			</g>
		</g>
	</g>
</g>
</svg>
